<mxfile host="app.diagrams.net" modified="2022-04-28T04:01:24.611Z" agent="5.0 (Windows NT 10.0; Win64; x64) AppleWebKit/537.36 (KHTML, like Gecko) Chrome/100.0.4896.127 Safari/537.36 Edg/100.0.1185.50" etag="POWwvGE4zssLhQeWfm-T" version="17.4.6" type="github">
  <diagram id="mWL2usgzlmIaqBACrkv3" name="Page-1">
    <mxGraphModel dx="2031" dy="1134" grid="1" gridSize="10" guides="1" tooltips="1" connect="1" arrows="1" fold="1" page="1" pageScale="1" pageWidth="850" pageHeight="1100" math="0" shadow="0">
      <root>
        <mxCell id="0" />
        <mxCell id="1" parent="0" />
        <mxCell id="_VWbQ-hqAl-CbUJv-0zC-6" value="" style="shape=image;verticalLabelPosition=bottom;labelBackgroundColor=default;verticalAlign=top;aspect=fixed;imageAspect=0;image=data:image/jpeg,/9j/4AAQSkZJRgABAQAAAQABAAD/2wBDAAsJCQcJCQcJCQkJCwkJCQkJCQsJCwsMCwsLDA0QDBEODQ4MEhkSJRodJR0ZHxwpKRYlNzU2GioyPi0pMBk7IRP/2wBDAQcICAsJCxULCxUsHRkdLCwsLCwsLCwsLCwsLCwsLCwsLCwsLCwsLCwsLCwsLCwsLCwsLCwsLCwsLCwsLCwsLCz/wAARCAC0AKcDASIAAhEBAxEB/8QAGwABAQADAQEBAAAAAAAAAAAAAAECBAUDBgf/xAA5EAACAQIDBQUFBwMFAAAAAAAAAQIDEQQSUQUhMTJxIkFhgZETFGKh8EJUcpKx0eEVI8EkNENEc//EABsBAQADAQEBAQAAAAAAAAAAAAACBAUDBgEH/8QALhEAAgICAQMCBQIHAQAAAAAAAAECAwQRMQUSIUFREzJhgdEGoRQVQpGxwfDx/9oADAMBAAIRAxEAPwD9bAABJSUVdni6k3ffZeH7ipK8mu5bjAo22tvSO0Y+rLmlq/VjNLV+rICvtk9FzS1fqxmlq/UgG2NFzS1fqxmlq/VkA2xoyTldb3xXeaOz9o5mqFeXavanUf2tIy8dPq+6uMeqPmP3f6mL1XOtwfh31vxvTXun/wCFzFojd3QkfYA5OztoZstDES7W5U6knzfDLx0+r9a56LBzqs2pW1P7eq+jKF1MqZdsgAC8cQAAAAAAAAAAADXlzS6sxLLml1ZDKlyyyiggIgoIAAAACrjHqj5eO9P8Ul82fULjHqj5aPCX45fqee/UUe7DT9pL/DL/AE96t19DI7Wz9o5stCvLtblSm/tfDJ66fV+KDyHT+oW4FvxK/uvdGtkY8b49sj7AHJ2ftDNlw9eXa4U6jfNpGXjp9X6x+s4ObVm1K2p/lP2Z5e6mVMu2QABeOIAAAAAAAABrS5pdWQsuaXVkMqXLLKAAIgAAAAAAq4x6o+Wh/wAn45fqfUrjHqj5WG6dVd+Z/JsyOtQc8GevTT/ct4ctXIzAB+anogdrZ+0M2WhiJdrhTnL7Xwy8dPq/FBo9P6hbgW/Er49V6Mr5GPG+PbI+wBydn7RzZaGIl2uFOb+18Mnrp9X6x+tYOdVm1K2p/lP2Z5e6mVMu2QABdOIAAAAABrS5pdWQsuaXVkMqXLLKKCAiCggAAAAB87tCjLD4qpJLsVZOrTfdvd3HyZ9EeVfD0cTTdOqrrimuaL1iz40pJxktp8n1Np7R87GSkrrz8CnvV2XjaUm6Nqse5xajO3jGW75nl7ttJf8AWq/lX+GeLyv05apN47Tj7PwzYq6hFrVi8mIM/dto7/8AS1PT+S+74/7pW9EZ0uhZ0f6N/dfk7rNpfqeZ2tn7RzZcPXl2uFOpJ83wyeun1fle7Y37rX/Kv3Hu2M+7Vvyfyd8GvqPTbfiQrevVcpr7EL5Y+RHtlJH1YOds+vi2lRxNKqml2Kko7ml3Seun1fon6bi5EcmtWJNfR+GjztkHXLtYABZOYAABrS5pdWQsuaXVkMqXLLKKCAiCggAAAAAAAAAAAAAAAAM6fPHzPc16fPHzNgvY/wApxnyAAWSAAABrS5pdWQsuaXVkMqXLLKAAIgAAAAAAAAAAAAAAAAAAzp88fM9zXp88fM2C/j/KcZ8gAFggAAAa0uaXVkLLml1ZDKlyyyiggIgoIAAAAAAAAUgABSAApAADOnzx8z3PCnzx8z3L+P8AKcZ8gAFggAAAa0uaXVkLLml1ZDKlyyygACIAAAANDF46rh6vsoQg0oRk3PNduSvus0eC2pXur06Vr77Zk7eDuZFvWcSmx1Tb2vHBbjiWzipJcnWA/g0sTtCnRk6dOPtJxdpNu0E9N29l/IyasaHxLZaRwrrlY+2K2boOP/VMTflo20tL9zdwmMWJcoShlnGObc7xavYpY/V8XImq4S8v3R2sxLa49zXg2wAapVAAAMqfPHzNg16fPHzNgv4/ynGfIABYIAAAGtLml1ZCy5pdWQypcssoAoIggKADCUKU7OcISa4Zop/qjhYtRjisSkkkqjsluSXhY75wcZ/u8T/6s8x+o4xVEWl57v8ATNLp7fe19DuybUJyXFQk11SbR8/hlSlXoqs/7bl2r8G7O131PoVwRyMVgKkJSnRWem23lXNHwtodOuUWz+HdCPcoPyv7fgjh2RXdCT1v1Op7Gg1l9lTy6ZI2t6GNLDYehKcqcbOdk97dlor9xxaOKxNB2jN5U98J716PgdfDYqniYtpZZxtnje9r96eh2wc/EzJpKKjNcbS/ZkLqLaVztGwAU3SkQFIAZ0+ePme54U+ePme5fx/lOM+QACwQAAANaXNLqyFlzS6shlS5ZZQABEDQ5n9Rq+8ZHCmqftcnfmSvlve/+DpnJxuCqqpOtSi5Rm3KSjxjJ8d2hjdXlk11xsxt+H517FvFVcpONnqdY4GLd8Xibb/70kvWxmsXtCMfZ+0mrLLyrOu7ja56YTB1qlSFSpGUacZKXbupTa3pJPfbUxc7M/m3Zj0Qe97e/QuU1fwu5zaOxwW9qyV23wSWphTq0qqbpzjNJ2bi+DFWn7WlVp3y54uN13XOK4Y3BzbSnF8M0e1GS9LG7n588OUX2bg+WvQpUURuTXdpnUxWGo1qdWTilOMJTU1x7Kbs/A5uzpSWKppcJQqKXS2Yxni8bXj7Nyk1Lc404pOS8cqubuAwk6Tdaqss3FxhF8UnxbMPvh1DOrtxoNKPlvWv+9i72uiiUbHzwjoAA9kZAAABlT54+ZsHhT54+Z7l/H+U4z5AALBAAAA15q0pdTE9qkL9pce88TMti4yZ3i9oAFOZIgKACAAAAAAAFAIAUAgKQAzp866M9zCnHKrvi/kZmjTFxj5OEntgAHYiAAADCUIO7tv8ACE0mvJ9XJhkjq/kMkdWAUtI6bYyR1YyR1YB80htjJHVjJHVgDSG2MkdWMkdWANIbYyR1YyR1YA0htjJHVjJHVgDSG2XJHVmahGL3LfqwDtVFbIyb0ZAAtkAAAD/2Q==;" vertex="1" parent="1">
          <mxGeometry x="640" y="500" width="167" height="180" as="geometry" />
        </mxCell>
        <mxCell id="_VWbQ-hqAl-CbUJv-0zC-8" value="&lt;b style=&quot;line-height: 1.2&quot;&gt;&lt;font style=&quot;font-size: 25px&quot;&gt;Flask&lt;/font&gt;&lt;/b&gt;" style="text;html=1;strokeColor=none;fillColor=none;align=center;verticalAlign=middle;whiteSpace=wrap;rounded=0;" vertex="1" parent="1">
          <mxGeometry x="625.5" y="130" width="170" height="30" as="geometry" />
        </mxCell>
        <mxCell id="_VWbQ-hqAl-CbUJv-0zC-9" value="-Cleans the review using NLTK&lt;br&gt;&lt;br&gt;-Sends a response to the dashboard.js from HuggingFace&amp;nbsp;" style="text;html=1;strokeColor=none;fillColor=none;align=left;verticalAlign=top;whiteSpace=wrap;rounded=0;fontSize=25;" vertex="1" parent="1">
          <mxGeometry x="860" y="160" width="545" height="200" as="geometry" />
        </mxCell>
        <mxCell id="_VWbQ-hqAl-CbUJv-0zC-10" value="&lt;span style=&quot;font-size: 25px&quot;&gt;&lt;b&gt;app.py&lt;/b&gt;&lt;/span&gt;" style="text;html=1;strokeColor=none;fillColor=none;align=center;verticalAlign=middle;whiteSpace=wrap;rounded=0;" vertex="1" parent="1">
          <mxGeometry x="625.5" y="160" width="170" height="30" as="geometry" />
        </mxCell>
        <mxCell id="_VWbQ-hqAl-CbUJv-0zC-12" value="Dashboard.js" style="text;html=1;strokeColor=none;fillColor=none;align=center;verticalAlign=middle;whiteSpace=wrap;rounded=0;fontSize=25;" vertex="1" parent="1">
          <mxGeometry x="602.5" y="690" width="225" height="30" as="geometry" />
        </mxCell>
        <mxCell id="_VWbQ-hqAl-CbUJv-0zC-16" value="API call" style="text;html=1;strokeColor=none;fillColor=none;align=center;verticalAlign=middle;whiteSpace=wrap;rounded=0;fontSize=25;" vertex="1" parent="1">
          <mxGeometry x="490" y="410" width="170" height="60" as="geometry" />
        </mxCell>
        <mxCell id="_VWbQ-hqAl-CbUJv-0zC-17" value="&lt;span style=&quot;font-size: 25px&quot;&gt;-Getting data from app.py and outputs sentiment and analysis&amp;nbsp;&lt;br&gt;&lt;br&gt;-Creates Plotly Bar and Pie charts&lt;br&gt;&lt;/span&gt;" style="text;html=1;strokeColor=none;fillColor=none;align=left;verticalAlign=middle;whiteSpace=wrap;rounded=0;fontSize=19;" vertex="1" parent="1">
          <mxGeometry x="580" y="720" width="450" height="170" as="geometry" />
        </mxCell>
        <mxCell id="_VWbQ-hqAl-CbUJv-0zC-21" value="&lt;b&gt;&lt;font style=&quot;font-size: 25px&quot;&gt;HTML&lt;/font&gt;&lt;/b&gt;" style="text;html=1;strokeColor=none;fillColor=none;align=center;verticalAlign=middle;whiteSpace=wrap;rounded=0;fontSize=19;" vertex="1" parent="1">
          <mxGeometry x="309" y="690" width="100" height="60" as="geometry" />
        </mxCell>
        <mxCell id="_VWbQ-hqAl-CbUJv-0zC-23" value="" style="html=1;whiteSpace=wrap;shape=isoCube2;backgroundOutline=1;isoAngle=15;fontSize=25;" vertex="1" parent="1">
          <mxGeometry x="1010" y="490" width="190" height="220" as="geometry" />
        </mxCell>
        <mxCell id="_VWbQ-hqAl-CbUJv-0zC-24" value="Text" style="text;html=1;strokeColor=none;fillColor=none;align=center;verticalAlign=middle;whiteSpace=wrap;rounded=0;fontSize=25;" vertex="1" parent="1">
          <mxGeometry x="510" y="535" width="60" height="30" as="geometry" />
        </mxCell>
        <mxCell id="_VWbQ-hqAl-CbUJv-0zC-25" value="Prediction" style="text;html=1;strokeColor=none;fillColor=none;align=center;verticalAlign=middle;whiteSpace=wrap;rounded=0;fontSize=25;" vertex="1" parent="1">
          <mxGeometry x="470" y="610" width="110" height="30" as="geometry" />
        </mxCell>
        <mxCell id="_VWbQ-hqAl-CbUJv-0zC-26" value="Database" style="text;html=1;strokeColor=none;fillColor=none;align=center;verticalAlign=middle;whiteSpace=wrap;rounded=0;fontSize=25;" vertex="1" parent="1">
          <mxGeometry x="1018.75" y="730" width="172.5" height="40" as="geometry" />
        </mxCell>
        <mxCell id="_VWbQ-hqAl-CbUJv-0zC-28" value="" style="shape=image;verticalLabelPosition=bottom;labelBackgroundColor=default;verticalAlign=top;aspect=fixed;imageAspect=0;image=data:image/png,iVBORw0KGgoAAAANSUhEUgAABAAAAAQACAYAAAB/HSuDAACAGElEQVR42uzdB5hddb3v4Z0QelGKYEEBCS2iArEACRAUByZt+kwaXVGxcCwItiv2iI1gO8g5KuBBD9gQFRU9FhRQEBVFlKp0KaGTEJLx/hazB4eQMmWvvf9r7ffzPO/Dvffc59HD7Fl7ff+zS6UiSZJq2QZh67BjmBxeEdpCTzgqHBOODyeGheHj4bTwpXBOOC9cOMSvwuVDXB2uH+LOsDhHdw35z7pmyH+P3w757/jj6n/3zP9W//f5TPV/v/eEE6r/ex9R/fcwPRxU/ffzorBdeLqHjiRJkiSpnm0edgh7hgNDR3W4vzV8IJwazgznh5+HK6rj+O6wLPyLMbk3/CNcGS4K3wtnhy9UDxSyw5Mjw6ywT9jZ4YEkSZIkKWubsEc4JCwIx4UPVgflN8MvwlXhjrDcAC+s7PDl9vCn8LPKwKsRslchvLd6gDOjMvCKg2eHCX4tJEmSJKk4bRR2qwy8lPywysBL6k+tjvqLw03hUcOYVeivHvhkrzL4YTijeij02upBwQvDFn7FJEmSJCn/xlcG3he+X2Xgr/bvDJ+rDLzs/g+VgZfbG7Lk7eHKwGcuZJ9z8JXw/srA5xhkj8tn+zWVJEmSpOGVvQx7Yjg4vCF8ujrws8G11PikAB4Jf64MfHDjp6qP40Oqj2tvM5AkSZLUdGWfiL9/eE1l4BPvs5F/bXjMgKTEHq0eDnwjfLgy8EqWl4RNXRIkSZIkFb1tKwN//XxH+HK4tDLwNXLGIDzZLeEnlYFXvRxRGfjGifVcQiRJkiSl1mZh38rAB6Z9tjLwVXiGPoz9Wwz+WBn4ism3VQY+3HIrlxtJkiRJ9WhceEFl4BP2F1UGPgjtNkMN6uq+8Kvq7+Bh1d/JcS5PkiRJksZS9tfG7CvQsk86/1641fiCJGVfcfnt8O7KwNtunu7yJUmSJGl1bVQZeInxSZWBD+Xzl30otux3+JxwXJha8ZkCkiRJUtO2cXhV+ED4ZVhiMEGp3RO+H94T9gvruwxKkiRJ5Sz7oL7s5fwfCxdXBj5gzCiC5vVI+Gl4b8UrBCRJkqRCl/2F/+CwMPwmLDd4gDV4uDLwVYTZ5wi8LIx3GZUkSZLSbEI4oDLwkv7sE8L9hR8Yi7vC2eHw8EyXWEmSJKmxbRnmh6+Few0WICf94feVgVcUZQeN67j8SpIkSfk3KZwQLqp4WT/QGHeHr4SOysA3iEiSJEmqQdlf2rIP6Pp4uNbwABKTfZjgd8PRYWuXbEmSJGlkZV/PNSv8d7jTwAAKIntV0v+F1zsMkCRJklZf9hVcPeH8ysBf1IwJoOiuCieFHV3iJUmS1OyNC/uGU8MdxgJQKe8rA7KvGMy+UWATl35JkiQ1U3uFReFWwwBoMksrA690yl7xtK6nA0mSJJWxLcKx4WIDAOBxN4UPhZ08RUiSJKnoZZ/gn/2V68Kwws0+wGpdHo6peIuAJEmSClb26dcnhOvc1AOMyP3htLCnpxJJkiSl3AvCF8PDbuIBxqQ//Cx0hQmeXiRJkpRC2Y3pYZWBl6+6aQeovexbUhaGbT3lSJIkqRFtGF4X/urmHKAuHgmnhxd5CpIkSVI9ek5l4Cv87nczDtAwvwqzwjhPS5IkSap124VTwoNuvAGScVGY7iBAkiRJtWj7ysAH+y1zow2QrD+E3jDe05YkSZJG2i7hnLDCjTVAYdwQjgnreBqTJEnS2to6fD486kYaoLCyb2aZ4SlNkiRJqyr7VP93Vny4H0CZXBIO8BQnSZKkrOyDo+aHf7hRBiit88JunvIkSZKat0PCX9wYAzSF7DNdss922d7TnyRJUvO0bfhq6HdDDNB0sq9zfVfYwNOhJElSeVuvetP3sBtggKZ3fWj31ChJklS+Dg7XueEFYCW/CXt7mpQkSSp+m4fTK17uD8DqPRZOrgx8I4wkSZIKWFe4040tAMN0a8XbAiRJkgrVlpWBT3p2MwvAaGTPIc/wdCpJkpR2+4e/u3kFYIxuCzM8rUqSJKVX9gn/iyre6w9A7V8NsKWnWUmSpDTaOVzuJhWAnNweZnm6lSRJamyHhMVuTgHI2YrKwDcFrOupV5Ikqb6NDwsrXvIPQH39ObzA07AkSVJ9enr4vptQABrkwbDA07EkSVK+PT/80c0nAAk4teItAZIkSbnUHh5wwwlAQn4XnucpWpIkqXYdG5a70QQgQTeFyZ6qJUmSxt5Jbi4BSNySMM9TtiRJ0uiaEM5wUwlAgSyqDHxTjSRJkobZhuG7biQBKKBvho08lUuSJK29jcOP3EACUGAXhS08pUuSJK2+p4VL3TgCUAJXhW09tUuSJD21TcNv3DACUCK3hz08xUuSJP279cIP3CgCUEJ3h5d5qpckSRr4tP/z3CACUGIPhwM95UuSpGYu+6qks9wYAtAkhwCv8NQvSZKatZPdEALQRB4IUzz9S5KkZus4N4IAVJrzlQBT3QZIkqRmqTUsdxMIQJO6L+zldkCSJJW9ncJiN38ANLk7w65uCyRJUlnbJPzRTR8APO6asJXbA0mSVLbWCT90swcAT3J59YBckiSpNB3vJg8AVulblYGvxpUkSSp8LwpL3eABwGp9wu2CJEkqehuGv7ixA4C1OsZtgyRJKnKnuKEDgGFZFvZ36yBJkorYAWGFGzoAGLabw9ZuISRJUpHKXvp/gxs5ABixn1YGvj1HkiSpEH3EDRwAjNrH3UpIkqQi9PywxM0bAIxaf2h1SyFJklLvR27cAGDM7qz4PABJkpRws92wAUDNfM2thSRJSrEJ4a9u1gCgpma5xZAkSal1uJu0hsq+cnFxuCVcX3Vb9f/Nvx+A4ro1bO42Q5IkpVL21//r3KTVRTbszwknhd7wwrDeMH5G2Vcz7hXmVwa+peHb1ZtK/04B0nemWw1JkpRKR7k5y82N4b/CoeG5OfzsdgqvDmeFO/z7BkjWbLcbkiSp0a0f/uHGrOaf/LwwvKDOP8vxYWo4LTzg5wCQlOwtXpu47ZAkSY3sMDdlNfPnysBnKWyUwM81e7/pm8Lf/VwAknGS2w5JktTIfu+GbMzOrwz85T3FslcFZJ9A/Vs/J4CGe7Qy8NYtSZKkuvdyN2Njcm2YXpCfdXYQsCDc7ucG0FBfd/shSZIa0f+4ERuVB8NxYd0C/syztyecVBn4K5SfJUBjtLgFkSRJ9ewZYambsBH7ZaUcL998SWXgMwv8TAHq74rKwCuzJEmS6tKb3ICNyPLwgbBOiR4DG4Yv+tkCNMShbkUkSVK9usTN17BdH15a4sdC9t3Ud/s5A9TVdWGC2xFJkpR3zw39br6G5Y/hWU3wmNgt3OTnDVBXfW5JJElS3h3vpmtYfhw2aaLHxTPDH/zcAerm6orPApAkSTl3sZuutfpBZeAT85ut7MMhL/PzB6ibTrclkiQpr7asDHygnZuu1ftepZhf8VerNnUIAFA32TeyeBWAJEnKpS43W2t0aaW5Xva/urK3A1zn8QBQFy2ediRJUh6d7kZrtX4XNvMQeaJtw989LgByd56nHEmSlEfXu9FapcVhew+Pp/Sy8KjHB0CuHqs0xzfOSJKkOraNm6xVyr4SsdXDY7W9wWMEIHfv83QjSZJq2Sw3WKv0cQ+NtXa2xwlArm4O63i6kSRJter9brCeIvve+/U9NNbaFuEWjxeAXE33dCNJkmrV+W6unmRFeLmHxbDr8ZgByNW5nmokSVKt8rVuT/YZD4kR912PG4DcLKn4NhpJklSDspe5L3dz9YRb3WSNqueFhzx+AHIz31ONJEkaa7u6qXqS13tIjLqTPX4AcvNNTzOSJGmsvcpN1RP+Edb1kBh1W4YHPY4AcrE0PM1TjSRJGkuHuql6wts8HMbcZzyOAHIzz9OMJEkaS8e7oXrc3WETD4cxl30WwDKPJ4BcnOVpRpIkjaUPuaF63EIPhZr1NY8ngFzcHsZ5mpEkSaPt026oHrezh0LNOtjjCSA3L/Y0I0mSRtvn3UxVfudhUNMmhH96XAHk4i2eZiRJ0mg71c1U5U0eBjXvkx5XALn4oacYSZJkqI1Of3i2h0HN29dNOkAuHgjjPc1IkqTRtLDJb6T+4iGQSxOqN6lu1gFqb5KnGUmSNJre0eQ3UYs8BHLru27SAXJxpKcYSZI0mo5p8puoTg+B3Hqrm3SAXHzWU4wkSRpNr2nym6itPARyay836QC5+K2nGEmS5ABgZG7348+1DcMKN+oANbek4oMAJUnSKHp1E99A/dyPP/dudKMOkIvne4qRJEkj7egmvnk6zY8/937oJh0gF4d4ipEkSQ4Ahu9tfvy5t8hNOkAujvMUI0mSRtpRTXzzNNePP/dOdJMO4JsAJEmSA4BGm+nHn3vHukkHyMV5nmIkSdJIO7KJb54O8OPPvUPdpAPk4jJPMZIkaaQd0cQ3T3v58edeu5t0gFzc6ilGkiQ5ABi+Xf34c+9VbtIBcvFYWMfTjCRJGkmHN/HN0x5+/Lk3y006QG429zQjSZJG0mFNfOM01Y8/9+a5QQfIzXaeZiRJkgOA4Wn148+917lBB8jN7p5mJEnSSGrmT2nv9ePPvbe7QQfIzd6eZiRJkgOA4TnWjz/3PuYGHcBb2SRJUhotaOIbp0V+/Ln3HTfoALk5wNOMJEkaSfOb+MbpAj/+3LvKDTpAbg70NCNJkhwADM+Nfvy5NiE86gYdIDcv91QjSZJGUjN/TdvysKGHQG7t5OYcIFcv8FQjSZJG0twmv3l6pYdAbh3t5hwgV9t5qpEkSQ4Ahu8DHgK5daabc4BcbempRpIkjaQ5TX7zdLGHQC6NC3e4OQfITfYZK+M93UiSJAcAw7csbOJhUPN2cXMOkKvbPNVIkqSR1ucm6vEPQlRte7fHFUCubvZUI0mSRlqvm6jKBR4GNe9qjysABwCSJMkBQIpfB/gsD4Wa9RKPKQAHAJIkKb163EQ97q0eCjVrkccTgAMASZKUXt1uoh73l4pPU65F2Qcq3u3xBOAAQJIkOQDwYYDl7p0eRwAOACRJUpp1uYnyKoAatWnFX/8BHABIkiQHAAXR5iEx6v7D4wfAAYAkSUq3TjdRT3Jt2MDDYsQ9Iyz2+AFwACBJktKtw03UU7zLw2LEfdHjBsABgCRJSrt2N1FP8UjY3kNj2O0dVnjcADgAkCRJDgCK6BwPjWG1TrjE4wXAAYAkSUq/NjdRq3WMh8da+4jHCYADAEmS5ACg6JaEPTxEVtvBFS/9B3AAIEmSCtNsN1FrdE1l4Pvt9eSeHe70+ABwACBJkorTLDdRa/W1MN5D5Yk2DL/0uABwACBJkhwAlNEZYZyHS2X98BOPBwAHAJIkqXjNdBM1bB9r8sdK9on/3/I4AHAAIEmSHAA0gxOb9HGSvQXic37+AA4AJElScZvhJmrEPldprs8EyN7zf56fO4ADAEmSVOymu4kalbPDuk3w+Ngs/MzPG8ABgCRJcgDQzH4QtirxY2OH8Fs/ZwAHAJIkqRy1uokakzurhyhl67jwiJ8vgAMASZJUng5xEzVmy8MHKuV4S8DG4Yt+pgAOACRJkgMAVu+66r/PIjYuHBZu93MEcAAgSZLK2cFuomru/PDcAj0Gdgs/93MDcAAgSZIcADBy94UPh60T/tlvXxn4SsMlfl4ADgAkSVL5a3ETlauHw6LwvIR+5pPCGWGZnw+AAwBJktQ8vcpNVN1cHo4Jmzbg55y9EuGEcJWfA4ADAEmS5ACA+r094L/CnPCsHH+224fDw9crvtIPwAGAJElq+g5yE9Vwfw2nhdeFV1ZG/gGC48MOlYHPc3hTZeDl/X/37xXAAYAkSdLQXukmKkkPhSvDr8L3w9eqhwSZ7C/6F4SLKwMv6V/q3xeAAwBJkiQHAADgAECSJKnyCjdRAOAAQJIklb8D3UQBgAMASZLkAAAAcAAgSZJK0DQ3UQDgAECSJJW/A9xEAYADAEmS5AAAAHAAIEmSStD+bqIAwAGAJElyAAAAOACQJEklaD83UQDgAECSJJW/qW6iAMABgCRJcgAAADgAkCRJJWiKmygAcAAgSZLK375uogDAAYAkSXIAAAA4AJAkSSVoHzdRAOAAQJIklb+93UQBgAMASZLkAAAAcAAgSZJK0MvdRAGAAwBJkuQAAABwACBJkkrQy9xEAYADAEmSVP5e6iYKABwASJIkBwAAgAMASZJUgl7iJgoAHABIkqTyN9lNFAA4AJAkSQ4AAAAHAJIkqQTt5SYKABwASJIkBwAAgAMASZJUgvZ0EwUADgAkSVL528NNFAA4AJAkSQ4AAAAHAJIkqQS92E0UADgAkCRJ5e9FbqIAwAGAJElyAAAAOACQJEkl6IVuogDAAYAkSSp/u7uJAgAHAJIkyQEAAOAAQJIklaAXuIkCAAcAkiTJAQAA4ABAkiSVoEluogDAAYAkSSp/u7mJAgAHAJIkyQEAAOAAQJIklaBd3UQBgAMASZJU/nZxEwUADgAkSZIDAADAAYAkSSpBO7uJAgAHAJIkyQEAAOAAQJIklaCd3EQBgAMASZJU/ia6iQIABwCSJMkBAADgAECSJJWgHd1EAYADAEmSVP6e7yYKABwASJIkBwAAgAMASZJUgnZwEwUADgAkSVL5295NFAA4AJAkSQ4AAAAHAJIkqQRt5yYKABwASJIkBwAAgAMASZJUgp7nJgoAHABIkqTy91w3UQDgAECSJDkAAAAcAEiSpBK0UegBSuvVhhI4AJAkSZJU/rYxlMABgCRJkiQHAIADAEmSJEkOAAAHAJIkSZIcAAAOACRJkiQ5AAAcAEiSJElyAAA4AJAkSZLkAABwACBJkiTJAQA4AJAkSZIkBwDgAECSJEmSAwDAAYAkSZIkBwCAAwBJkiRJDgAABwCSJEmSHAAADgAkSZIkOQAAHABIkiRJcgAAOACQJEmS5AAAcAAgSZIkyQEAOACQJEmS5AAAcAAgSZIkyQEA4ABAkiRJkgMAwAGAJEmSJAcAgAMASZIkSQ4AAAcAkiRJkhwAAA4AJEmSJDkAABwASJIkSXIAAA4AJEmSJDkAMJTAAYAkSZIkBwCAAwBJkiRJDgAABwCrbd68eZ3hGHI3v7e3tyscNGfOnH3b29t3njp16uae4iRJkuQAABwA1KX58+dfceihh/6Lp1qwYEGusv+M+Pe/bN68eTeGX4QzwwfmRj09PXtMmzZtA0+BkiRJDgAABwAOAAo8/odj3rx5y+Pnc23885y5c+e+tbe3d8o+++yzoadFSZIkBwCAAwAHACUZ/0PFz+hx1UOBZXPnzr1szpw5n+zt7Z0+bdq0TTxNSpIkOQAAHAA4ACjJ+F+VIQcCF8U/T4p/7hM/0vGeNiVJkhwAAA4AHACUZPyv4UBgcfaWgb6+vsOmTJmyqadQSZIkBwCAAwAHACUa/6syd+7c+8LZYVb8qCd4OpWar83CrmG/0BveFE4IHw2nhNPCOatxRvV/nvlweGM4BoDcvd1QAgcADgCaZ/zX6gBgpVcG3BtO6+npmWoSSeUpO9mbFNrDW8Kp4XvhqrDEEy0AgAMABwDNM/5X88qA7EME33DQQQc9zXySitNzwozqX/C/Gv4QHvVkCgDgAMABgPG/NvPmzVsazuzq6nqBaSWl1TNC9t6dheFX4X5PmgAADgAcAHjffw0OAvrDhdXPChhnekn1b5PqX/ez9+VfGZZ7kgQAcADgAMD4z0v1swIu7enp6XAQIOXb+uGg6l/4Lw8rPCkCADgAcABg/DfC3Llz/5J9lWA8RMabalJtWje0hi+FezwJAgA4AHAAYPynZM6cOX/q6+vr8YoAaXRlL+3PTtLOD4944gMAcADgAMD4L8BBwC97e3v3N+ektZedlh1Q/Uv/Yk92AAA4ADD+i2ju3LkXzpw5c1cTT3pq21cG3tN/iyc4AAAcABj/RR7/Qw4BHp0zZ86iadOmbWLyqdnL3tefvUfmwooP8gMAwAGA8V+i8b/SQcDN1Q8KlJquzcO7wt89mQEA4ADA+C/z+F/p8wHObWtre65JqGZol3BmWOpJDAAABwDGfzON/yGHAI+EEyq+NlAlbe/KwCf5e5k/AAAOAIz/ph3/K70t4KL29vYdzUWVpf2qw7/fkxYAAA4AjH/j/ymHAPf39fUdUxn4NjSpkB0YLvVEBQCAAwDj3/gf1tsCLpg5c+ZzTEkVqT0rA5/o70kKAAAHAMa/8T+yVwPc0d3d3WpWKvUmhnMqXuoPAIADAOPf+B+1efPm9YeF8XBbx8xUaj0rnBaWeVICAMABgPFv/Nfs1QA/a2lp2drkVAplX1fx+rDYkxEAAA4AjH/jv+avBPhXX1/fTZ2dnS81P9XI9g1/9CQEAIADAOPf+M/vACAzd+7cJX19fUeaoap3m4RTwnJPQAAAOAAw/o3/fMf/kEOA/r6+vo9WfC6A6lRXuN0TDwAADgCMf+O/fuN/pYOACydPnvw081R5lX3oxDmecAAAcABQrAMA479c43/QnDlz/tzZ2bmdqapad0i4zZMNAAAOAIp1AJDa+HcAUJvxPyj7cMCurq4XmayqRZuGMz3JAADgAKB4BwDGf7nH/5C3AzzU09PzKvNVY2lyuNoTDAAADgCKdwBg/DfH+B/ydoClfX19nWasRtr4cFJ4zJMLAAAOABwAGP9pj/8hrwRYPmfOnCNMWg23bcKFnlQAAHAAUNwDAOO/+cb/SocA80xbra29wvWeUAAAcABQ3AMA4795x/+QQ4D+3t7eN5i4Wl2vCY96MgEAwAFAcQ8AjH/jf6VDgDebuhraeuE0TyIAADgAGFkxsq4w/o3/FMf/kEOAFT09PUebvcraMvzEEwgAAA4Ain0AYPwb/2t5JcBR5m9zt2u4wZMHAAAOAIp9AGD8G//D+WDAnp6ebjO4Ods/LPbEAQCAA4BiHwAY/8b/cM2ZM+fh7u7u/czh5mpOWOpJAwAABwDFPgAw/o3/kerr63ugq6trT7O4OXp1WO4JAwAABwDFPgAw/o3/MRwC3NbZ2bmdeVzuFnqiAADAAUDxDwCMf+N/jJ8HkB0CXDV16tTNzeTyNT583pMEAAAOAIp/AGD8G/9jHf+Z6isBfhQP43VN5vK0TviKJwgAABwAFP8AwPg3/msx/ofq7e39itlcjiaEb3pyAADAAUDxDwCMf+O/1uN/8JUAc+bMeYv5XPzxf64nBgAAHAAU/wDA+Df+8zwAiH+u6O7unmlGF3f8/68nBQAAHAAU/wDA+Df+8xr/Q/X19d3T09Mz0ZwuVuPCFzwhAADgAKD4BwDGvwOAeoz/IW8F+Ftra+tmZnVx+qwnAwAAHAAU/wDA+Df+6zX+V/pQwK+b1cXo/Z4IAABwAFD8AwDj3/hvxPgffCVAb2/vG8zrtDvekwAAAA4Ain8AYPwb/40a/0M+FHBZV1fXvmZ2ms0LKzwJAADgAKDYBwDGv/HfyPE/1Jw5c66ZNm3aJuZ2Wr0qLPMEAACAA4BiHwCkNv4dADTv+B98JUBfX99ZJnc67R7ud/EHAMABQLEPAIx/4z+l8T9UT0/PPNO78W0TbnThBwDAAUCxDwCMf+M/1fGf6evru++QQw7Z3gRvXOuFn7voAwDgAMABgPFv/Oep+q0A/xcP9/GmeGM6ywUfAAAHAMU/ADD+jf+Ux/9KrwQ43hSvf29zsQcAgOIfABj/xn9Rxn/1WwGWtrW1vdAkr18zKr7uDwAACn8AYPwb/0Ua/4NvBejp6bkiHvbrmub5N6niE/8BAKDwBwDGv/FftPE/VG9v7/vM83zbKFzpIg8AAMU+ADD+jf8ij//BtwJ0dHTsZqbn19dd4AEAoNgHAMa/8V/08T/4VoC+vr7fVHwrQC4d6eIOAADFPgAw/o3/Moz/Ia8CyA4BXmuu17bsff8PubgDAEBxDwCMf+O/bOO/egBw3+zZs59tttem7H3/f3ZhBwCA4h4AGP/GfxnHf6b6fz/bdK9Ni1zUAQCguAcAxr/xX9bxP3gA0NfX19/Z2bm/+T62pod+F3UAACjmAYDxb/yXafyv6gBgUG9v71XxqzDBjB9dW4bbXNABAKCYBwDGv/HfLON/8JUAvb29bzDlR9e3XMwBAKCYBwDGv/Ff9pf+r+oAIP65uKOjY0tzfoTXDxdyAAAo5gGA8W/8N9v4H6qvr+9Uk374PSPc5UIOAADFOwAw/o3/Zh7/Vcva29t3Nu2H1zku4gAAULwDAOPfAYDx/8S3AnzHtF977S7gAADgAMD4N/6LOP5X+laAKSb+6nt6xaf+AwCAAwDj3/gv+PivHgBcZOavvs+6eAMAgAMA49/4L/r4H3wrQGdn52xT/6m9NCx38QYAAAcAxr/xX/TxP3gA0Nvbe3X8ekww+f9d9i/jShduAABwAOAAwPgvw/gfqru7e47Z/+/e6KINAAAOAIx/479s47/qGq8CGOhZ4X4XbQAAcABg/Bv/JRz/j/9ndHd3zzf/K5UvuWADAIADAOPf+C/j+B88APAqgEpl/9Dvgg0AAA4AjH/jv4zjf6ienp55zTr+x4WLXawBAMABgPFv/Jd9/Gf6+vr+FL8q45vxAKDPhRoAABwAGP/GfzOM/8G3AvT09HQ32/hfL9zgQg0AAA4AjH/jvxnG/+ABQF9f32XNdgDga/8AAMABgPFv/DfN+B+qs7PzoGYZ/5uFO12kAQDAAYDxb/w32/ivfhbAhc1yAPB+F2gAAHAAYPwb/804/gd1dXW9pOzjf4twvws0AAA4ADD+jf9mHf/VrwT8WtkPAE52cQYAAAcAxr/x38zjP9Pb27t81qxZO5R1/G8THnZxBgAABwDGv/HfzON/yGcBfLSsBwCfcmEGAAAHAMa/8e8A4Im3Ady17bbbbli28f+csMSFGQAAHAAY/8a/8f+kVwEcWbYDgFNdlAEAwAGA8W/8G/9PeRXA78s0/rcOj7goAwCAAwDjvzzj3/v+a/qVgPuW5QDgIy7IAADgAMD4N/6N/9W+CuCMMoz/p4X7XZABAMABgPHvpf/G/2q/EnBpa2vrM4p+APB2F2MAAHAAYPwb/8b/mnV3d/9Hkcf/euEWF2MAAHAAYPwb/8b/Wt8GcHX8Go0r6gHAES7EAADgAMD4N/6N/+Hp6OiYWsTxn51a/NGFGAAAHAAY/8a/8V/uDwN8hYswAAA4AHAAYPwb/8PX19f3UGtr62ZFOwD4roswAADUzd+LcgBg4Bv/xv9aXwVwTJHG/45hhYswAADUzXVFOAAw8I1/439YBwC/LNIBwCddgAEAoK6uTv0AwMA3/o3/Yb8NoH/WrFk7FGH8bxLudQEGAIC6+lPKBwAGvvFv/I/4VQDvLsIBwOtdfAEAoO5+n+oBgIFv/Bv/ozoAuLpSgP7g4gsAAHV3WYoHAAa+8W/8j15XV9dLUh7/L3XhBQCAhrgotQMAA9/4N/7H/FkAn0z5AOB0F14AAGiIC1I6ADDwjX/jvyZvA7g9fq3Gpzj+Nw0PuvACAEBDnJPKAYCBb/wb/7XT0dExNcUDgKNcdAEAoGG+lMIoiMHiAMD4N/5rqLe3d1GKBwC/dtEFAICGWeQAwPg3/kv5OQC3pPY2gEkuuAAA0FAfdgBg/Bv/5dTZ2TklpQOAhS64AADQUO9wAGD8G/+l/TDAU1IZ/+uEW11wAQCgoY50AGD8F238OwAY9gHAP+LXa1wKv+MHutgCAEDDzXAAYPwb/6V7//8T2tvbX5bC7/gXXWwBAKDhXuYAwPj30v9yjv9Md3f3Bxv9+71+WOxiCwAADbeDAwDj3/gv5/jP9Pb2/qHRv99tLrQAAJCETRwAGP/GfznHfyb7nx1yyCHbN/L3+39caAEAoOEerCSSAwDj3/iv/fgfPADo6up6XaN+tzcOD7nYAgBAw12VygFAjLzfGf/Gv/Ff2/E/eADQ3d39w4Yd7rnQAgBAEn7gAMD4N/7LO/4HDwB6e3uXtLS0bNyI3+3/daEFAIAk/GcqBwAxPq80/o1/47+243+ojo6Otnr/Xm9QfZ+Riy0AADTeuxN6BcDVxr/xb/znM/6rXwdY9wO/VhdZAABIxqEJHQBcb/wb/8Z/PuO/+nWAN9b79/q/XWQBACAZe6dyABDD+Gbj3/g38PMZ/4OfBTBz5syd6vU7PSHc7SILAADJeHpCrwC42/g3/sln/Dfi6wCnucACAEAy7qik07gYgMuNf+OffMb/kG8D+Ha9fqk/5SILAADJ+GUq67+1tXWzBQsWGP/GPzmN/8EDgJ6engfiV27devxeX+siCwAAyTgtlQOAzs7O7cp6AGD8G/8pjP+Vvg5wat6/0893gQUAgKS8JZUDgK6urheV8QDA+Df+Uxv/mZ6env+X9+/0m11gAQAgKQekcgAQg+SAsh0AGP/Gf4rjP9Pd3f2zvH+nL3CBBQCAZPSHzVI5AIhB2F6mAwDj3/hPdfxnent7l0ybNm2DvH6fNwpLXGQBACAZ11cSKkbP0WU5ADD+jf/UDwCy/4zOzs4pef0+T3eBBQCApHwjpQOAGKonleEAwPg3/lMf/4MHAN3d3e/J6/d5kQssAAAk5b2JHQD8V9EPAIx/478I43/I1wH+OK/f52tcYAEAICkHJfYWgB8W+QDA+Df+izL+Bw8Aent7H4pfvXVr/bu8vYsrAAAkZVnYOLFXAFxV1AMA498BQJHG/1CdnZ171/p3+SgXWAAASMpllcSKkXhfEQ8AjH/jv6jjP9PV1fX2Wv8un+UCCwAASTklpfHf2tq6mb/8G//Gf/319PR8p9a/zze7wAIAQFL6UjoA6OrqeoHx733/xn/99fb2/rOWv8u7urgCAEBSVoStUjoAiBFysPFv/Bv/9Zf9d5k1a9YOtfpdPtYFFgAAknJ5au//jxFytAMA49/4b8wBQEdHx5xa/S6f6wILAABJ+UhqBwAxqk82/o1/479hbwM4tRa/x+PD3S6wAACQlANTOwCI4Xie8W/8G/91H/6P/7O7u7sm3wqym4srAAAk5eGwQWoHADFm/2r8G//Gf33H/+ABQPxz2eTJkzca6+/xMS6wAACQlG9W0mvdGLTLjH/j3/iv7/gfqru7e7+x/iJ/2QUWAACSclhq67+rq2unBQsWGP/Gv/HfoPFfPQD4j7H+Lv/NBRYAAJLxWNgitQOAGCWdqR4AGP/GfzOM/+oBwFlj+T1+Ruh3kQUAgGT8JMGX/2fv/z8pxQMA49/4b5bxn+np6blqLL/HM11gAQAgKW9O8QAgxtK3jH/j3/hv3PivHgAsb2lp2Xi0v8cfdYEFAICkXv7/jBQPAGJQXm/8G//Gf+PG/+C3AbS1te072t/jX7jIAgBAMn6Q4vhvbW3dLEZuv/Fv/Bv/jRv/gwcAXV1dbxzN7/GEysD3i7rQAgBAGg5L8QAgBse+xr/xb/w3dvwPHgB0d3efPprf4z1cYAEAIBkPho1TPACI4fQW49/4N/6TOQC4YjS/x0e6yAIAQDK+Wkm0GB1fM/6Nf+O/seN/8ACgp6fn0UmTJq030t/jz7nIAgBAMvZN9QAgBu/fjX/j3/hv7PgfqqOj48Uj/T2+1EUWAACS8KdUx//s2bOfbfwb/w4A0hn/1QOA+SP5PV43LHGhBQCAJLwp1QOAGJntxr/xb/ynM/4z3d3dHxnJ7/HuLrIAAJCER8IWqR4AxIj6iPFv/Bv/6Yz/TE9Pz3kj+T0+woUWAACS8LlKwsX4vcT4N/6N/3TGf/UA4IaR/B5/xoUWAAAabkXYKdXx39raulmMqceMf+Pf+E9n/FcPAPqnTJmy6XB/l3/lYgsAAA13fsp//e/u7m41/h0AGP9pjf/BrwNsa2t7+XB+j8eF+11sAQCg4aalfAAQg/Nk49/4N/7TGv+DBwCdnZ1HD+f3eHsXWgAAaLifVRIvRudlzTj+vfTf+E95/A85APjUcH6PZ7rYAgCAv/6n8P5/49/4N/5HdwDQ09Pzg+H8Lp/oYgsAAP76v6a6Ii/9N/6N//TG/+ABQHd39/XD+V0+0wUXAAAa6hUFePn/l4x/49/4T2/8D3kFwPKJEyeuv7bf5StccAEAoGEuqKTfuBhYtxv/xr/xn974H2rGjBm7rekXeZ2wxEUXAAAaYkV4UQFe/v8S49/4N/7THv+Zjo6OtjX9Lu/iogsAAA1zZgH++l+JkfU+49/4N/7THv+Znp6e49f0u9zhogsAAA3xaNixCAcAMYx/a/wb/8Z/2uM/09XV9cU1/S6/24UXAAAa4mNFGP+zZ8/eJsbxCuPf+Df+0x7/me7u7v9b0++zbwAAAID6y76ua8OCvPz/zca/8W/8pz/+q25d0+/zJS6+AABQd4dUClIMrl8Y/8a/8V+I8Z99BkB/S0vLxqv7fb7LxRcAAOrqe0UZ/52dndvFSO43/o1/4z/98T/kmwB2X9Xv8xYuvgAAUFeLw7OKcgAQI+etxr/xb/wXZ/xXPwhw1qp+n1/uAgwAAHX16kqBiuF1qfFv/Bv/xRn/mc7Ozjet6vd5gQswAADUzY/DuKKM//b29u1r8fJ/49/4L9P4L8IBQE9PzydX9Tt9koswAADUxUNhpyL99T+GzonGv/Fv/Bdr/Fe/CvCbq/qd/poLMQAA1MWCSrEaH4P5BuPf+Df+izX+qx8CeMWqfqkvdyEGAIDcnVWw8V+JEXGg8W/8OwAo3vivvgLg3lX9Xt/jYgwAALn6e3h60Q4AYvCcYfwb/8Z/8cb/oJV/pzdzMQYAgFw9El5ctPE/derUzWM4LzH+jX/jv5jjf1UHALu7IAMAQK6OrhSwGD2vNf6Nf+O/uON/VQcAM1yQAQAgN/9VKWgxnn9r/DsAMP57S3UA8HoXZQAAyMXvwkZFHP8xHKYY/8a/8d9bugOAj7kwAwBAzd0UnlnUv/7HWP2G8W/8G//lOwD4uoszAADU1ENhj6KO//b29h1jsC4v6vj3vn/j3/hf/QHAr12gAQCgZlZkr6CvFLgYZIuMf+Pf+C/nAcCtLtIAAFAzryny+D/44IO3iBH9kJf+G//Gf/kOANavnlC6UAMAwNidVCl4MVrfYfwb/8Z/OQ8AdnCRBgCAmvjvMK7g+3/dGNJ/N/6Nf+O/nAcAU1yoAQBgzBaVYPxnX/33OuPf+Df+y3sA0OViDQAAY3JKGcb/pEmT1hvOX/+Nf+Pf+C/uAcAbXbABAGDUPlIpSTHO3mz8G//Gf7kPAD7sog0AAKPy4bKM/8mTJ28UA+1249/4N/7LfQDwJRduAAAYsQ9WSlQMtLcb/8a/8V/+A4Dvu3gDAMCw9Yf3leE9/4NNmTJl0xixdxn/xr/xX/4DgN+7iAMAwLA8HDorJStG2gnGv/Fv/DfHAcAdLuQAALBW2X3zy8o2/mfOnPmcGGoPGv/Gv/Ff/gOACWGFizkAAKxR9qrZbSslLMbBmca/8W/8N8cBwLNczAEAYI1+GbYs4/jv6emZGuO63/g3/ss8/h0A/PsA4EUu6AAAsFpfCOtXytn4GNeXG//Gv/HfPAcAB7qoAwDAUywOsyslLsbs4ca/8e+l/811ANDt4g4AAE9ySXhemcd/S0vLxjFobzb+jX/jv7kOAF7rAg8AAI/rDwsrAx+UXepi0H7U+Df+jf/mOwB4lws9AABUHgwLKk1Q9YP/Vhj/xr/x33wHAJ90sQcAoMl9qzLw7Vilb5999tkwBttfjX/j3/hvzgOAr7jgAwDQpO7M/iBeaaJi1J5s/DsAMP6b9wDgfBd+AACa0Jlh62Ya/0Nf+m/8G//Gf3MeAFzs4g8AQBO5OcyoNFlDX/qf2vj30n/j3/jPV09PzxMHAH/zJAAAQBN4LHw2bFFpwmK0fdD4N/6N/+Yc/0MPAO7yZAAAQMn9JOxeadK6uroOzl76b/wb/8Z/c47/oQcAj3lCAACgpP4UXllp4lpbW7eN4Xan9/0b/8Z/847/wQOADTwpAABQQg+Ed1bvd5u2SZMmrRdD+xLj3/g3/pt7/A8eAGztyQEAgBK5N5wQNqkoe9//R4x/49/4N/4HDwB29CQBAEAJ3B9OqjTpB/yt5n3/XTG2+41/49/4N/4HDwD28GQBAECBPRIWhq1M/n8XN/u7xHh7wPg3/o1/43/oAcB+njQAACjoS/1PDs8z95/c5MmTN4pxe5nxb/wb/8b/ygcAMzx5AABQIFeGw8L6pv4qmxDj7QfGv/Fv/Bv/qzoA6PMkAgBAAfwstIXxNv7qi3F7uvFv/Bv/DgBWdwDwGk8mAAAk6h+VgU/039a0H9b4f4fxb/wb/8b/mg4A3uqJBQCAhDwWzgkH+Wv/8IuxND8Gbr/xb/wb/8b/mg4A3udJBgCABFwTPlgZ+JpqjaAYAlNi4C4x/o1/49/4X9sBwMmebAAAaJDrwkfDnmb86Iqb+h1iwN1h/Bv/xr/xP5wDgFM98QAAUEd/Cx8Lk833sdXe3r5jDKabjX/jvyzj3wFAfuN/8ADgNE9CAADkaGk4PxwTnme216a2trbnxsC93vg3/o1/438kBwBneFICAKDGbg5nhvlhC3O9trW2tm4bA+5a49/499J/43+kBwD/6wkKAIAxuqH6ytKe8EwTPb+6urp2irF0k/Fv/Bv/xv9oDgDO84QFAMAIZZ/Y/+VwdNg1jDPN8y9u4F/oA/+Mf+Pf+B/LAcCPPIEBALAG/wjfDR8KHWEbU7wh7/mfFGPpNuPf+Df+jf+xHAD83JMaAADhvvDr6kv53xymhc1N78bX3d3dGmPpQePf+Df+jf+xHgBc6skOAKApLKu+Vz/7A1D2QdDvr76E/1UVn86fbDGUjonx9pjx7wDA+Df+a3EA8AdPhgAAhfxr/eJwY7g+/C78MHw1LArvDcdWBj6Ub0rYNqxjTherGG4nxLjtN/6Nf+Pf+K/VAcDVnkABGu6xcFP1UPan4Zzwher7bd9aGfju7OwmfnrYP0wOzw9bV1+euyrj3TpLUjFraWnZOIbbOSkNf+Pf+Df+iz3+Bw8AbnTjDZC75dW/0GUfvPr5cGKY569ykqSVa29v3z6G7R9TG//e92/8G//FHv+DBwA3uzEHqJmllYGX4X4pvC3Mrgx8PdZ6bmklSWsrRu0+MbRvNf6Nf+Pf+M/rAOA2N+wAo7Ik/Cp8PMwPu4cJbl8lSaNofIzsk2LYLp8/f77xb/wb/8Z/bgcAd7iJBxiWf4ZvVgbek7+Pv+pLkmpRa2vrZjFqv5ENf+Pf+Df+jf+8DwDuclMPsEq3hDMrAx/A93y3qJKkWpe95D9cZ/wb/8a/8V+vA4B73OQDPOGq8NHqX/i9nF+SlEsTJ05cPwbbohjZ/ca/8W/8G//1PAC4zw0/0MRWVAbex3982MktqSQp7zo6OnaLQXvZ4PA3/o1/49/4r+cBwAMGANBk+sOF4bCwhVtRSVK9/uof43phDLbHjH/j3/g3/ht1APCQMQA0iRvC+8LObkMlSfWsu7t7Wozra4cOf+Pf+Df+jf9GHAAsMQqAEnswnBYmu/2UJNW77BP+Y6h9auW/+hv/xr/x7wCgUQcAjxoIQAldF94StnT7KUlqQOvEKDouhvXilYe/8W/8G//GfyMPAJYbCkBJZNezc8JU952SpEYVN9kvi1F9yaqGv/Fv/Bv/xn+jDwD6jQag4JaFr4QXuu2UJDWqrq6uPWPAXri64W/8G//Gv/HvAABg9O4PJ4Wt3XZKkhpVa2vrtjFeT1/V+/yNf+Pf+Df+U9Hd3e0tAEAhZR9e+unwbLedkqRGNXPmzF3jJv/MGNPL1jT8jX/jv2zj3wFAMcf/4AHAMmMCKIilYWHYym2nJKlRxc30LjHKvjyc4W/8G//Gv/GfyvgfPABYalQABfDtMMltpySpUcXN87QYZN+KEb1iOMPf+Df+vfTf+E9p/A8eADxiWAAJuzS81G2nJKkRTZs2bZPq1/ldO9zRb/wb/8a/8Z/i+B88AHjIwAAS9M9wWBjv9lOSVO/a2tomxQD7ZAzVu0Y6/I1/49/4N/5THP+DBwD3GxpAYs6u+GR/SVID/tofw+uoGKi/Hs3oN/6Nf+Pf+E95/A8eANxrbACJuCbs7xZUklTP0R8D57AYyufHOF06luFv/Bv/xr/xn/L4HzwAuMfoABqsP3wxPM2tqCSpDq0bN+4HxSA9Pdwz1tFv/DsAMP6N/yKM/8EDgLuMD6CBrgv7uheVJOXZ7Nmzt4lBc0z2l/4YWo/UavQb/8a/8W/8F2X8Dx4A/NMAARrktLCZ21JJUg6Nj5viPWJ4vi3G1QW1eHl/Uca/l/4b/8a/8b+mA4DbjRCgzrJvHzncvakkqYaN6+rqekHcnL8uBtW5o/30fuPf+Df+Dfyyjv/BA4CbjRGgjq4Ou7tPlSSNpZaWlo3jZvzAGFDviZH5/Ri+i+sx+I1/49/4N/6LOv4HDwCuM0iAOsk+6G8Dt62SpBE0PvvLfvZJ/TGYFsWovDD+eVu9x773/Rv/xr/xX/TxP3gAcJVRAuRseXire1hJ0uqaOnXq5jGKXhLDcW6M2feGr4ZLwz0pjH3j3/g3/o3/oo//wQOAK4wTIEfZB41OdWsrSc3ZxIkT1585c+Zzsg/kixvpg2McLogB/c745xfC98KfwwMLFiz4V4pD3/g3/o1/478s43/wAOBSAwXISfZ+/53d/pai8R0dHVvGjeZO4WXhoEMPPfTgI444oif+z3Pixv2Yww477Nj45wnNJv73h1GLMVBEH47/7gszMfY+Hf88Lf55dvhG/J8vjH9eFP+8PP7//S3+eX+Rhr3xb/wb/5R5/A8eAPzCSAFy8P2wid2cfjNmzNg8btD3ikHfGd4WQ/4zhx9++Pfin7+Lf94QI/++I4888l/xT1YS/36SEj+zpMTjiTXIhnFKyjTSjX/j3/g3/ss2/mt5APBjQwWosdPCBNM6rZEfN697xyg7Kobix8K3w+9j2D8+7lfFwDf+jf/mGf8OAIx/49/4p/zjf/AA4HxjBaihk8M4k7thrRs38i+OQXhY+ET4SbjjqKOO+tfqhr7xb/wb/8a/gW/8G//GP+Uf/4MHAN8wWIAa6A9vsL/rW2dn57YxKOZUX7Z/RXh0JEPf+Df+jX8HAAa+8W/8G/+U+33/Kx8AnG24AGO0Ihxjjudf3IzuEgPidTFE/yf8Y6R/2Tf+jX/j3/g3/o1/49/4pznH/+ABwJeNF2CMf/l/vWmeS+Pihm9yDKsTwvkx+O6q9eA3/o1/49/4x/g3/o1/mmP8Dx4A/KcBA3jZfzJNiBvzadn792N0XpPn4Df+jX/j3/jH+Df+jX+aZ/wPHgB8yogBjP/G1d7e/vTsffzZy/pj3C2ux+A3/o1/BwDGP8a/8V/+8e8AwPhf1QHABw0ZYBTeY7qPvtmzZ28Tw+m4GHS/ihG+ol5/6Tf+jX/j3/jH+Df+jX+ac/wPHgCcYMgAI/QJE37kTZkyZdO4AZ8fQ+47Mb6XNmLwG//Gv/Fv/GP8G//GP805/gcPAN5ozAAj8NXsw+nM+eEXN977xVg6M0bcI436S7/xX+zx733/xr/xb/wb/w4AjH/jv1YHAEcaNMAwXRQ2MOnXXtwMbB9DcmEMt1tSGPzGv/Fv/Bv/GP/Gv/FPc4//wQOAHqMGGIarwxam/Vr/2j8tRva5MdoeTeWv/ca/l/4b/8Y/xr/xb/xj/A8eAEw3bIC1uCPsYN6vun322WfD7AP9Br+2b5Dxb/wb/8a/8W/8G//Gv/Fv/Kcy/gcPAPY3boA1eDBMNvOfWgyiLWM0nhT+OXT4G//Gv/Fv/Bv/xn+Rx78DAOPf+C/n+B88AJhs4ABrcJip/+RaWlq2joH2sRj69608/I1/49/4N/6Nf+Pf+Df+jX/jP8XxP3gAsKuBA6zG58z9fxcX7efEoD5t8P39xr/xb/xj/Bv/xr/xb/wb/0UZ/4MHANsaOcAqXB7WN/uHN/xTHP8OAIx/49/4J93x733/xr/xb/w36gDg6YYOsJL7w86Gf88W2Vf5hQfXNPyNf+Pf+Df+jX/j3/g3/o1/4z/18T94ADAuLDd4gKr+MLOZh//EiRPXzz7cL0bZQ2sb/sa/8W/8G//GvwMA49/4N/6N/yKM/8EDgKzFRg9Q9clmHv8xxl4ZA/pPwxn+3vdv/Bv/xr/xb/wb/8a/8W/8F2X8d3V1PXEAcIPRAzTz+/7jSXX3GGM/GcnwN/6Nf+Pf+Df+jX/j3/g3/o3/ooz/oQcAvzN8oOk9EnZpxpf7x3D+YIzDJca/8W/8Y/wb/8Y/xr/xX7bxv6oDgJ8YP9D03tFs4z9u6l8Rw/CGkQ5/49/4N/6Nf+Pf+Df+jX/j3/gv2vgfegDwDeMHmtqvwvhmGf5TpkzZNPtav9Bv/Bv/xr+BX6Tx7wDA+Df+jX/SHf8pv/R/5QOA0w0gaFpLwq7NMv7jZuygGGE3jmb4G//Gv/Fv/Bv/xr/xb/wb/8Z/Ucf/0AOAk40gaFonNsPwnzZt2gYxwD4Vo3mF8W/8G//Gv/Fv/Bv/GP/Gf7ON/6EHAO8ygqAp/SasU/bxHzc+L4oBdvVoh7/xb/wb/w4AjH/j3/g3/o1/BwBFH/9DDwCONYSg6SwPe5Z9/MfYOW40n/Bv/Bv/xr/xb/wb/8a/8W/8G/9lGv9DDwDmGEPQdL5Q5uHf3t7+9BiD3xjL8Df+jX/j3/g3/o1/49/4N/6N/7KM/6EHAK8whqCp3Bk2L/Ff/feMMXiN8W/8G//Gv/Fv/Bv/GP/Gv/H/1AOAFxpE0FReW+Lx3xdj8GHj3/g3/h0AGP/Gv/FPEca/AwDjv17jf+gBwDMNImgal4XxJdz+42MoLxrr8Df+jX/j3/g3/o1/49/4N/6N/zKO/6EHABPCCsMISq8/7Fu25b/PPvtsGEP5XOPf+Df+jX/j3/g3/jH+jX/jf+0HAFl3G0dQemeXbfy3tLRsHUPwEuPf+HcAYPwb/8a/8Y/3/Rv/xv/wDwCuNo6g1B4LO5Zp/McN/G4xBK83/o1/49/4N/6Nf+Mf49/4N/5HdgDwCwMJSu20Mo3/GFyTY+Tcafw7ADD+jX/j3/g3/jH+jX/jf+QHAN8wkKC0lobnlWj87x8eMv6Nf+Pf+Df+jX/jH+Pf+Df+R3cA8AUjCUrrC8a/8W/8G//Gv/Fv/Bv/xr/xb/w37/hf+QDgA0YSlNKjYXvj3/g3/o1/49/4N/7LMf4dABj/xr/xX4sDgNcZSlBKnzX+jX/j3/g3/o1/499f/41/49/4b+7xv/IBwGxDCUr51//Cv/c/bgj3jpFzfxnHvwMA49/4N/4x/o1/49/4N/7rMf5XPgDYy1iC0jm96OM/njx3jxF4j/Fv/Bv/xr/xb/wb/wa+8W/8G/+1OwDYxliCUlkRdin4X/53qdVX/Xnpv/Fv/Bv/xr8DAOPf+Df+jf9mHv8rHwCMr75c2HCCcvhBkcd/PJk/N0bOTca/8W/8G//Gv/Fv/Bv4xr/xb/zX/gAg6x9GE5TGQUUd/zNnztwoRvJlxr/xb/wb/8a/8W/8G/jGv/HfLOO/EQcAFxtNUAq/L/Af/9eJ0fUD49/4N/6Nf+Pf+Df+DXzj3/g3/vM9ADjXcIJSOLyo6z9GzkeNf+Pf+Df+jX/j3/g38I1/499L//M/AFhkOEHh/TNsUNAP/euOodxv/Bv/xr/xX+Tx7wDA+Df+jX+M/xTH/6oOAI43nqDwPlzQv/zvGUPwEePf+Df+jX/j3/g3/jH+jX/jvz4HAHONJyi0/rBz0cb/tGnTNokheJXxb/wb/8a/l/4b/8Y/xr8DAOO/9qr/eStWvg/f24CCQvtpEf/6H0P5bOPf+Df+jX/j3/g3/jH+jX/jP78DgI6OjttWvg9/pgEFhTavaOM/huBRxr/xb/wb/8a/8W/8Y/wb/8Z/7gcAF698Lz4uPGxEQSHdU7QP/4sL8gtjDC4x/o1/49/4N/6Nf+Mf49/4N/5zPwD4yqruya82pKCQFhXsff8bxFj+k/Fv/Bv/xr/xb/wb/xj/xr/xX5cDgHev6r78h4YUFNLkgr30/wPGv/Fv/DsAMP6Nf+OfIox/BwDGf5HH/+ABQFtbW9+q7su/YEhB4VxVpPEfN4YvjUH4mPFv/Bv/xr/xb/wb/xj/xr/xX58DgOnTp++xqnvzE40pKJyTijL+J02atF4MwiuNf+PfAYDxb/wb/8Y/Xvpv/Bv/9dHZ2dnf0tKy8aruz/uMKSicXQv00v8TjX/j3/g3/o1/49/4x/g3/o3/+lnVVwAOtrcxBV7+n0fxRLpzjPilxr/xb/wb/8a/8W/8Y/wb/8Z/XQ8Afr66e/StDCoolHcX5QAgBtiPjH8HAMa/8W/8G//GP8a/8W/811dbW9sX13Sffo9RBYWxY0E++G+28W/8G//Gv/Fv/Bv/GP/Gv/HfkFcAHL+me/VLjSrw8v9aNXHixPVjyF9r/Bv/xr/xb/wb/800/h0AGP/Gv/Gf0AFA25ru188wrKAQFhbkpf/vMP6Nf+Pf+Df+jX/jH+Pf+Df+G6O1tXWNrxp+j2EFhbBf6uN/5syZW8UwvNf4N/6NfwPf+Df+vfQf49/4N/7rr729/aG4LR+/pnv2HsMKkpd9Vsc6Bfjav1OKPv4dABj/xr/xj/Fv/Bv/xr/xX8Txn+ns7LxsbffsLzauIHlfT338x03ZdiP92j/j3/g3/o1/49/4N/6Nf+Pf+Df+a3oAcMba7ts3Cv0GFiTt0AK89/9LXvpv/Bv/GP8OAIx/jH/j3/hv6FcAvn049+63GFiQrOyAbpuUx388se4cA3q58W/8G/8Y/8a/8Y/xb/wb/40ze/bsQ4Zz//5TIwuSdWXZ/vpv/Bv/xr/xb/wb/8a/8W/8G/+pj/8iHgC0tLQ8dzj376cYWZCsT6c8/uPJfvsY0cuMf+Pf+Mf4N/6Nf+Pf+Df+jf/G6ejouD9uz8cN5x7+NUYWJGt2WT753/g3/o1/49/4N/6Nf+Pf+Df+vfQ/twOAi4d7D7+PkQVJWh6elur4jxG0ZQzFh41/49/4J+Xx7wDA+Df+jX+M/7KP/0x7e/tnhnsfv6lvAoAkXZ74e//fbfwb/8Y/xr/xb/wb/8a/8W/8J3EAcMRI7uVvMrYgOZ9MeP+vG+PsFuPf+Df+8dJ/49/4N/6NfwcAxn/jzZw588UjuZn/nrEFyWlP+OX/c41/49/4x/g3/o1/49/4N/6N/yTe//9w3KKvM5L7+YXGFiTnWQm//P//jH/j3/jH+Df+jX/j3/g3/o3/xuvs7LxkpPfzhxpbkJSbUh3/8WS7c4zqfuPf+Df+Mf6Nf+Pf+Df+jX/jP4lXAHx2pPf0exlckJRvJvzVfycb/8Z/M4x/BwDGv/Fv/JPu+HcAYPwb///W1tZ25Ejv6dcLS40uSMbxie7/CTEcbzf+jX/jH+Pf+Df+jX/j3/g3/tMwffr0PUZzY/97owuSMS3Rv/4fYvwb/8Y/xr/xb/wb/8a/8W/8J/Py/yXZN3SN5t7+dKMLkrAibJriAUCM67ONf+Pf+/6Nf+Pf+Df+HQAY/8a/8Z/MAcAvR3tvf6zhBUm4LsXxP2XKlE1jQD5s/Bv/xr/xb/wb/8a/8W/8G//GfzLfALBwtPf3exte4AMA1/Dy/3nGvwMA49/4N/6Nf+Pf+Df+jX/jP6kPAOwY7f39huEx4wsa7v8legDwXePf+Df+jX/j3/g3/o1/49/4N/6T+et//7Rp07Yayz3+n40vaLi21MZ/S0vLxjEiHzH+jX/j3/g3/o1/49/4N/6Nf+M/mQOAa8Z6n/9V4wsa7vkJ/vW/0/g3/o1/49/4N/6LPP4dABj/xr/xX8IPAPzKWO/z32J8QUNlX+MxPrUDgBhuZ6R2AGDcG//Gv/GP8W/8G//Gv/HfrOO/+v7/1471Pt8HAUJj/THBt/+vE2PgTgcAxr/xb/wb/8a/l/4b/8a/8W/8p2PmzJkvHuuN/vrVv0AaYtAY56a2/uPG4OVe+m/8G//Gv/Fv/Bv/xr/xb/wb/0m9/P/+7A91tbjfv9gIg4b5UGoHADGY3mf8G//Gv/Fv/Bv/xr/xb/wb/8Z/Otrb28+r1f3+KUYYNMzhCX4A4K+Nf+Pf+Df+jX8HAMa/8W/8G//Gf1IHAP9Rq/v9HiMMGma/lMb/jBkzNo9hudz4N/6Nf+Pf+Df+jX/j3/g3/o3/cr3/f7DnGmHQMNundAAQN5mzU/jwPwPf+Df+jX+Mf+Pf+Df+jX8HAAM6OzvvqfU3h91siEHdrQjrJvb1f59q9AGAgW/8G//GP8a/8W/8G//Gv/H/pK//q/kHh3/TGIO6uyO19//HoPtNIw8ADHzj3/hvnvHvAMD4N/6Nf9Id/176n9wBwLG1vu8/zhiDuvttSuN/5syZG8XIXNaoAwAD3/g3/o1/jH/j3/g3/o1/4/+pZsyYsVut7/33MMag7r6V2F//9/eXf+Pf+Df+jX/j3/g3/o1/49/4T0dHR0f2quFxtb73zz5Q4F6DDOpqUUoHADEUTjT+jX/j3wGA8W/8G//Gv/Hvff/Gf1Jf/3dWXvf/5xtkUFfHJ/YKgG8Z/8a/8W/8G//Gv/Fv/Bv/xr/xn9T7//vyuv9/u0EGdTUnsQOAG41/49/4N/6Nf+Pf+Df+jX/j3/hP5uX/j02dOnXzvO7/X26QQV0dkMr4jwv/FvX88D8D3/g3/o1/jH/j3/g3/o1/43+tL/+/KM8NMCHcb5RB3bw4lQOAuMF6Rb0OAAx849/4N/4x/o1/49/4N/6N/7Xr7Ox8V9474AKjDOpmu4Q+APBt9TgAMPCNfwcAxj/Gv/FfzvHvAMD4N/5rb/r06XvkvQNONMqgbp6W0AHAl/M+ADDwjX/j3/jH+Df+jX/j3/g3/of91//b8/j6v5XbwyiDulhej1/o4Rbj6uI8DwAM/GKNfy/9N/6Nf+Pf+HcAYPwb/8Z/wz8A8Ev12AHZILnNOIPcLU7sGwDuzesAwMA3/o1/4x/j3/g3/o1/49/4H5nZUb22wFeNM8jdDamM/5aWlq395d/4N/6Nf+Pf+Df+jX/j3/g3/pP59P8HJk6cuH699sCRxhnk7g+pHADETft+xr8DAOPf+Df+jX/j3/g3/o1/4z+Zl/+fU8898MzQb6BBrn6T0AcAHm38G//Gv/Fv/Bv/xr/xb/wb/8Z/Mi//n1/vTXClgQa5uiih9/9/yPg3/o1/49/4N/4dABj/xr/xb/w3/JP/s5f/L5kyZcqm9d4EnzDQIFc/TegA4Czj3/g3/o1/49/4N/6Nf+Pf+Df+Gzv+qwcA32/I54IZaJCrCxI6APiFAwDj3/g3/o3/co9/L/03/o1/49/4L8YBQFtb26sbsQnWCw8YaZCb7yd0AHCj8W/8G//Gv/Fv/Bv/xr/xb/wb/40b/9UP/1s+ffr0ZzZqF5xrpEFufpjI/l8nxuBjxr/xb/wb/8a/l/4b/8a/8W/8G/+N+8t/9ev/ftTIYTDfSIPc/CiF9R83Gs8+6qijjH/j3/g3/o1/49/4N/6Nf+Pf+G/Q+B9yAHB0I7fBFuExQw3KewAQN4d7jOUAwMA3/o1/4x/j3/g3/o1/498BwNjGf6ajo+OR1tbWzRq9D35uqEF5DwDipv5Voz0AMPCNf+Pf+Mf4N/6Nf+Pf+Df+xz7+qx/+d24K++BthhqU9wAghsa80RwAGPjGv/Fv/GP8G//Gv/Fv/Bv/tRn/1VcAdKawD3Y11KC8BwAxxo4b6QGAgW/8G//NM/4dABj/xr/xT7rj3/v+yzH+q+/9v3fixInrp/ItYX801qCcBwAxED80kgMAA9/4N/6Nf4x/49/4N/6Nf+O/dn/5z/5nbW1t/11JqPcYa1DaA4DPD/cAwMA3/o1/4x/j3/g3/h0AGP/Gf+3G/+ABwKxZs16R0gHAzsYalPYA4KzhHAAY+Ma/8e99/xj/xr/xb/wb/8Z/bcd/9cP/rq4k2JUGG5TyAOA7azsAMPCNf+Pf+Mf4N/6Nf+Pf+Df+az/+qx/+d2KKBwDvNdiglAcAP1nTAYCBb/wb/8Y/xr/xb/wb/8a/8V/78V/9/7Psla985TYpHgDsYrBBKQ8AfrO6AwAD3/j//+3dC7xlBV3o8cPMAMrLJBHQUQc8SB7yxekiZ2bU7cyZs2ef/Vh7b+cg9AnSqxJqXtIyrJtF2oPM8pFd4lNZapl5y2dhSRcpuCmI2lVRPyYKZvgo3g95zIz3v2KPAvM6j732Xo/v7/P5f86AwgzD5qz1/a+114Z/+DfwD//wD//wD//ZXPkfPP3/gxM57hpoM6Z0HwN4zZ4WAIAP/xYA8G/gH/7LiX8LAPiH//Hjf9cCoNlsdvK8AHgNtBlTujsArnvoAgDw4R/+4d/AP/zDP/zDP/xnh//Be/+/FafjB+Z5AfDYmO3gZkyp7gD4xgMXAIAP//AP/wb+4R/+4R/+4T9b/A/mNyYK0KXgZkyp7gD41q4FAOAXC//e9w//8A//8G8BAP/wD//Fw/+uh/9t2bLlMUVYALwQ3Iwp1R0A/5kuAAAf/uEf/g38wz/8wz/8w3/2V/7TvyZJkvdMFKQjYu6EN2PKsQB44QtfeIur/279h3/4N/AP//AP//AP/yO57f+//rpOp7NhokD9BbwZU5o7AO6wAIB/+Id/A//wD//wD//wnz3+0+l2u5+cKFhteDOmNM8A+K4FAPzDP/wb+LcAgH/4h3/4zx7/6XQ6nZcUbQGwOubrAGdM8RcAgdy7LQDgH/7hH/7hH/7hH/7hH/6zxf/gr71xenr6kIkC9nqAM8YCAP7h38A//MM//MM//MM//C9uAdDtds+fKGjHxeyAOGMsAOAf/g38w7/3/cM//MM//FsA7Pe9/7fPzMwcOVHgPgpxxlgAwD/8G/iHf/iHf/iHf/iH//0uAN46UfCeD3HGWADAP/wb+LcAgH/4h3/4h3/43+et//fVarV1RV8AHBTzHZAzxgIA/uEf/uEf/uEf/uEf/uEf/ve8AEiS5M8nStKbQc4YCwD4h3/4h3/4h3/4h3/4Lxb+LQCyx386vV5v59atW59algXAE2K2w5wxFgDwD//wD//wD//wD//wD//wv9t7//9+omR9EOaMsQCAf/iHf/iHf/iHf/iHf/iH/x/c+p9e/W82m9NlWwDMwpwxFgDwD//wbwEA//AP//AP/973D/8PWgD8zURJ+yzQGWMBAP/wD//wD//wD//wD//wX3X873rvfxmv/u/qHKAzxgIA/uHfAgD+4R/+4R/+LQDgv+r4H7z3/8MTJe7wmFugzhgLAPiHf/iHf/iHf/iHf/iH/6rif9d7/+v1+skTJe/Xoc4YCwD4h3/4h3/4h3/4h3/4h/+qXvlP/57dbvdvJyrQo2PuAjtjLADgH/7hH/7hH/7hH/7hH/6rhv/Brf/3tVqtH5moSH8AdsZYAMA//MM//MM//MM//MM//FcN/4MFwEUTFer4mO1wZ4wFAPznG/8WAPAP//Bv8ot/CwD4h//i4X9w6/9t69evf/RExforuDPGAgD+4R/+4R/+4R/+4R/+4b8qV/4HC4DzJyrYergzxgIA/t36D//wD//wbwEA//AP/1XA/+DW/xumpqYOm6hoHwE8YywA4B/+4R/+4R/+4R/+4R/+y47/dJIkedlEhZuO2Ql5xlgAwD/8wz/8wz/8wz/8wz/8lxX/g1v/r4xT61UTFe9vIM8YCwDv+4d/+Id/+Id/+Id/+If/sl757/V6O1ut1syEJk52F4AxFgDwD//wD//wD//wD//wD/9lxP/gvf9/gv4/6IOgZ4wFAPzDP/zDP/xbAMA//MM//JcJ/4Nb/2+u4sf+7asfcxeAMRYA8A//8A//8A//8A//8A//ZbryP1gA/Dzy7967Yc8YCwD4h3/4h3/4h3/4h3/4h/8y4H/w3v+r43R6De7v3nExdwOfMRYA8A//8A//Rce/9/3DP/zDP/y79T++3rt169anov7e+z3gM8YCAP7hH/7hH/7hH/4N/MN/CW79/3XE33dHxdwKfcZYAMA//MM//Lv1H/7h38A//Bf41v9rJicnD0b8/Xc+9BljAQD/8A//8A//8A//Bv7hv4hX/gP/O9rt9qlov7iOiPkW+BljAQD/8A//Bv7hH/4N/FsAFOnKf/pzJUlyIdYvrTPBzxgLAPiHf/g38A//8G/gH/6Lgv90Av+fX7du3cOQfmkdEHM5/BljAQD/8A//Bv7hH/7hH/7hvwhX/tOn/tfr9ZNxfnlNx+wAQGMBYAEA//BfFfxbAMA//MO/yS/+ve8f/hfx1P/zMX5l/SkAGgsACwD4h3/4N/AP//AP//AP/3nFfzqB/yvjtHkNwq+stTG3QaCxABj/AgD+4d8CAP7hH/7hH/7d+g//8L/HK/931uv1k/B9OL0cAo0FwHgL4N4N//AP//AP//AP//AP//AP/7svAJrN5unYPrxWxfwzCBoLAAsA+Id/+Id/+Id/+Id/+Dd5wX86vV7v7cg+/J4Scy8MGguAai8A4B/+4R/+4R/+4R/+4d/k5cp/4P+aubm5Q3E9m94Ig8YCoLoLAPiHf/iHf/iHf/iHf/g3ebny733/2XdEzPVAaCwAqrcAgH8LAPiHf/iH/6Li3wIA/uG/fPhPJ0mSFyN69m2I2QGFxgKgOgsA+Id/+Id/+Id/+Id/+Dd5wf/gqf9vRvPR9RYoNBYA1VgAwD/8wz/8wz/8wz/8w7/J05X/mEvj9HgNlo+uQ2K+DIbGAqDcC4C84d/7/uEf/uEf/i0A4B/+4b/aV/7j61c3b978w0g++mZitsOhsQAo5wIA/uEf/uEf/uEf/uEf/k2ervx3u93vzs/PPxPFx9fvwqGxALAAgH8D//AP//AP//AP//Cf8cf9be90Ok0EH2/p+y4+DojGAqBcCwD4h3/4h3/4h3/4h3/4N3m58p/+3EmS/BR+56PjY26FRGMBUI4FAPzDP/zDP/xbAMA//MO/ydED/9Jb/9+E3fnqLEg0FgDFXwDAP/zDP/zDP/zDP/zDv8nTlf9er/c3cSq8Grnz11+CorEAKO4CAP7hH/7h3wIA/uEf/uHf5Oyhf5etXbv24aidzw6N+TwsGguA4i0A4B/+4R/+4R/+4R/+4d/k7KF/n2o0Gkdgdr57kucBGAuAYi0A4B/+4R/+4R/+4R/+4d/k7Mr/lwL/R+F1MToNGI0FQDEWAPAP//BvAQD/8A//8A//JmdX/r+1ZcuWE7C6WP0BNBoLgHwvAOAf/uEf/uEf/uEf/uHf5OnKf+D/3+fn55+E08VrTcw/gKOxAMjnAgD+4R/+4R/+4R/+4b+K+LcAyPWVf/gveEfGfBkejQVAvhYA8A//8A//8A//8A//8G9c+VcWnRhzM0AaC4B8LADgH/7hH/7hH/7hH/7d+m9yduX/27Ozs09B5/LUidkBkcYCYLwLAPiH/zLh3wIA/uEf/g38w38pnvb/r7VabR0yl68XQ6SxABjfAgD+4R/+4R/+4R/+4R/+TZ6u/Af+Pzs/P38MKpe3XwNJYwEw+gUA/MO/W//hH/7hH/4tAODf5OzK/ydmZmaORORyd0DMn8CksQAY3QIA/uEf/uEf/uEf/uEf/k3OrvxfDv/V6eCYjwGlsQDIfgEA//AP//AP//AP//AP/yZPV/6TJLlw4v6PjFeFOiTmn6DSWABktwCAf/iHf/iHf/iHf/iHf5MX/Pd6vR3dbvdcFK5uj4j5FFgaC4DhLwDgH/7hH/7hH/7hH/7h3+QB/4Of857A/wsQWEfFfBEujQXA8BYA8G8BAP/wD//wX1T8WwDAP/yX78p/wP9r8/PzT0df7er4mK8DprEAWPkCAP7hH/7hH/7hH/7hH/5Njq78X1qr1R6FvHpoj4v5CmQaC4DlLwDyhn+3/sM//MM//FsAwD/8w3+l3/P/9snJyYNRV5YAxgJgyAsA+Id/+Id/+Id/+Id/+Dc5wf8tgf8+3moxPTHmOtg0FgCLXwDAP/zDP/zDP/zDP/zDvxk3/tOfL+D/L/Pz80/CWi2lo2M+DZzGAqCYCwD4h3/4h3/4h3/4h3/4r96V/263+86pqanDcFbLKX3hXAKdxgJg3wsA+Id/+Id/+Id/+Id/+DfjxH/A/5vtdruBsFpph8b8HXgaC4A9LwDgH/7hH/7h3wIA/uEf/s248J/+XEmSfGj9+vWPRlcNq9Uxb4NPYwHw4AUA/MM//MM//MM//MM//Jtx4D/9ebrd7p2B/1fG6ekqZFUWnRuzA0KNBcBP3g3/8A//8G8BAP/wD//wb8Z49f/9W7ZseQyiKuteEHMPiBoLAPiHf/iHf/iHf/iHf/g3o8V/kiTf6fV6C1iqUfb0mGth1FgAwD/8wz/8w7+Bf/iHf5M9/gcf7/cX9Xr9WBzVODoy5iNAaiwA4B/+4d8CAP4N/MM//MN/pvD/XKvV2oigGncHxJznuQDGAgD+AR/+4R/+DfzDP/zD/9Af8ndbp9P5pXXr1j0MPZWn5mNuglNjAQD/Bv7hH/7hH/7hvzz4twAYPf4HV/zvirlg48aNj0RN5bXHx1wFqMYCAP4N/MM//MM//MM//MP/suC/vdvtXtRoNNbipYrQoTEXxuwEVWMBAP/wD//wD//wD//w79Z/+F/cBP7f22w2n4yUKmLrY74Cq8YCAP7h3wIA/uEf/uEf/uEf/vc+3W73k51OZytCqugdEXMRsBoLAPiHf/iHf/iHf/iHf/iH/91u9X9nvV4/GRtVthoxN4CrsQCAfwsA+Id/+Id/+LcAgP+q4n/Xw/2SJHlLo9F4IiaqzD025mJ4NRYA8A//8A//8A//8A//8F8l/A8+zu+mmPM3b958NBqqSm2K+TzEGgsA+Id/+Id/+Id/+Id/+C8z/gdX/L/Q6XReFfD/YRRUVTsw5tyYW2HWWADAP/zDP/zDP/zDP/zDf8nwf2PA/4J6vX4S+kk/6NiYd074yEBjAZBr/FsAwD/8w7/JL/4tAOAf/seP/8GV/p3dbveS+Lqwbt26h6GetPdmYz4LtsYCAP7hH/7hH/7hH/7hH/6Lgv8B/K/pdDqva7VaT8M6aemLgKsB11R1AQD/8A//8A//8A//8A//+cX/4GF+96VX+mPOnZ2dfTzCSSvrgJh2zGdA11gAwD/8wz/8w78FAPzDP/yPG/+B/TuTJPlIzCvn5uaOQzZp+K2JeVHMdcBrqrAAgH/4h3/4h3/4h3/4h//c4P+e9Cp/gP+8ZrM5Had+q/FMGk2rBncEXAK+pqwLAPiHf/iHf/iHf/iHf/gf69wT6P94oP9N6UP8arXaozBMGn8nT9z/qQH3QrAFQFkWAPAP//AP//AP//AP//A/2gnofy3A//4kSX4uwL/RU/ulfHdCzO/H3ArDFgBFXgDAP/zDP/zDP/zDP/zDf2a38u8I3P97YP9jMb8Xc3ar1ZppNBpH4JRUzA4avD3gve4KsAAo2gIA/uEf/nOL/5uGPQHu3E0AN1cTwDX7mABlriZwZfYxAc9cTSA4j3PzCq/g3xH/bF+OuSJ+/NcD4L82SZKz2u32c5rN5vFTU1MH4ZJU3o6NOXfCpwdYABRgAQD/8A//+b3yP+FBT5I0qlal77VPsZ5OvV4/KX3g3kOn0+k8I/3fN2/efLSr95IeWvoxgqfE/GbMF2HZAiBvCwD4h3/4z/dt/xYAkiRJxe3JMb8Qc2XMDni2ABjnAgD+4R/+8/+efwsASZKkcnRIzGzMBTFXWwhYAIxyAQD/8A//xXjgnwWAJElSOVsbc0bMW2I+EXMPXFsAZLEAgH/4h38LAEmSJOWrg2NOjfmpmLfG/EPMDcBtAbCSBQD8wz/8F+vj/iwAJEmSqt0jYp4S04p5+cT9byF4Z8wlMdfEXBtzfcxND5jvDP68Gf68oygLAPiHf/gvFv4tACRJkiQteQEA//AP/8XDvwWAJEmSpCUtAOAf/i0Aiol/CwBJkiRJi14AwD/8w39x8W8BIEmSJGlRCwD4h3/4Lzb+LQAkSZIk7XcBAP8WAPBffPxbAEiSJEna5wIA/uEf/suBfwsASZIkSXtdAMA//MN/efBvASBJkiSpEAsAuId/+LcAkCRJkjTkApO5WgDAPfzDvwWAJEmSJAsA+Id/+LcAkCRJklT0BQDgwz/8WwBIkiRJKvkCAPDhH/4tACRJkiSVfAEA+PAP/xYAkiRJkkq+AAB8+Id/CwBJkiRJJV8AAD78w78FgCRJkqSSLwAAH/7h3wJAkiRJUskXAIAP//Cf3ZxxxhkWAJIkSZLGvwAAfPiH/2zxbwEgSZIkaewLAMCHf/i3AJAkSZJU8gUA4MM//I8G/xYAkiRJksa2AAB8+LcAGB3+LQAkSZIkjWUBAPjwD/+jxb8FgCRJkqSRLwAAH/7hf/T4twCQJEmSNNIFAODDP/yPB/8WAJIkSZJGtgAAfPiH//Hh3wJAkiRJ0kgWAIBfLPxbAJQP/xYAkiRJkjJfAAA+/MP/+PFvASBJkiQp0wUA4MM//OcD/xYAkiRJkjJbAAC+9/3Df37wv2sBcPrpp1+b1Zx22mlmH7OwsJCr2bZtm9nP9Pv9ws3U1NRBzmIkSdJIFwBwD//wny/8Zz2nn3662cc8//nPz9WcdtppZj+zsLCQq9m2bduiZnJy8mBnMZIkaWQLALiHf/iHfwP/8D96/Kezbt26hzmLkSRJI1kAwD38wz/8G/iH//Hg3wJAkiRZAMA//MM//MO/BUAF8J/O2rVrH+4sRpIkZb4AAHz4h3/4N/AP/+PDfzrT09OHOIuRJEmZLgAAH/7hH/4N/MP/ePFvASBJkjJfAAA+/MM//Bvv+4f/8eM/nbm5uUOdxUiSpEwWAIAP//AP/wb+4T8f+E+nVqsd5ixGkiQNfQEA+PAP//Bv4B/+84N/CwBJkpTJAgDw4R/+4d/AP/znC//pbNiw4XBnMZIkaWgLAMCHf/ivDv4tAOAf/ouDfwsASZI01AUA4MM//MO/gX/4zyf+02k0Gkc4i5EkSSteAAA+/MM//Bv4h//84n/wMYCPcBYjSZJWtAAAfPiHf+/7N/AP//nGvwWAJEla8QIA8OEf/uHfwD/85x//g08B+CFnMZIkaVkLAMCHfwsA+DfwD//FwH86GzdufKSzGEmStOQFgKv/8A//8G/gH/6Lg38LAEmStKwClBYA8A//8G/gH/4LhP90ZmZmjnQWI0mSLADgH/7hH/7hH/5LjP90Nm/e/MPOYiRJkgUA/MM//MM//MN/ifFvASBJkiwASop/CwD4h3/4N/nF/7gWALVa7VHOYiRJkgUA/MM//MM//MN/ifFvASBJkiwA3PoP//AP//BvAVAB/KfTaDSOchYjSZIsAOAf/uEf8OEf/kuM/3Tm5uYe7SxGkiRZAMA//MO/gX/4LzH+LQAkSZIFAPzDP/wDPvzDfwXwP/gUgKOdxUiSJAsA+Id/+DfwD/8lxn868/PzxziLkSRJFgDwD//wb3KOfwsA+LcAkCRJFgDwb+Af/uEf/uF/n/O85z3ve/V6/VhnMZIkyQIA/uEf/o1b/+G/xPhPp9PpPMZZjCRJsgCAf/iHfwP/8F9i/FsASJIkCwD4h3/4N/AP/xXAfzqbNm16rLMYSZJkAQD/8A//8A//8F9i/KfTaDTWOouRJEkWAPAP//AP//AP/yXGvwWAJEmyAIB/+C85/i0A4B/+4X/XzM3NPc5ZjCRJsgCAf/iHf/iHf/gvMf4tACRJkgUA/MM//MM//MN/BfCfzuzs7OOdxUiSpMovAOAf/r3vH/7hH/7LjP905ufnn+AsRpIkVXoBAP/wD//wD//wX3b8WwBIkqTKLwDg3wIA/uEf/uG/CvhPp1arrXMWI0mSKrkAgH/4h3/4h3/4rwr+Bw8BPM5ZjCRJqtwCAP7hH/7hH/7hv6j4twCQJEkWAPAP//Bv4B/+4X+v02w2j3cWI0mSKrMAgH/4h3/4h3/4ryL+02k0Gk90FiNJkiqxAMgb/i0A4B/+4d/kF/9led+/BYAkSarcAgD+4R/+4R/+4b/K+E+n0+lMOouRJEkWAPAP//AP//BvAVBi/FsASJKkSiwA4B/+4R/+4R/+q47/dLZs2XKCsxhJklTaBQD8wz/8wz/8wz/83z/z8/NPchYjSZJKuQCAf/iHf/iHf/iHfwsASZJU8gUA/MM//MM//MM//O/2DIATncVIkqRSLQDgH/7hH/4tAOAf/nefVqv1I85iJElSaRYA8A//8A//8A//8G8BIEmSSr4AgH/4h3/4h3/4h/+9T7PZfLKzGEmStOQFAPzDP/zDvwUA/MN/cfCfTqPRmHIWI0mSllQA7m74h3/4h3/4h3/4Lw7+LQAkSVLhFwDwD//wD//wD//wv7ip1+snOYuRJEmFXADAP/zDP/zDP/zD/5KeAfCjzmIkSVLhFgDwD/9lwr8FAPzDP/xbAEiSJAsA+Id/+Id/+Id/+B/KzM/PP8VZjCRJKswCAP7h363/8A//8A//FgCSJKnkCwD4h3/4h3/4H+0EGm8NSF8deH13zK90u92fiD/X7vf7z44fP73ZbB6fTvy5Z8Qf1+LPd2LOjHld/Ln39Hq9T8fXO+B//PhPp9PpPNVZjCRJyv0CAP7hH/7hH/5HcgX/xoDiXwXcz2m1WicM67iRJMlUv99/RcwH4+e4Bf7HM/Hv9GnOYiRJUq4XAPBvAQD/8A//maL/W4HDt7Tb7VPjW/yqERxG1qR3EMT8QbpwgP+RvgXg6c5iJElSbhcA8A//8A//8J/Jrf33BU7/otfrbY1v66vHdTyZmpo6KH3bQPx63he/nh3wbwEgSZIqugCAf/iHf/iH/+G/pz9gen6n0zk6b8eWrVu3rkvvRIi5qwz4z+MCIP69P8NZjCRJyt0CAP7hH/7hH/6He8U/xXW9Xj8278eY+fn5J/T7/T9ayh0B8G8BIEmSCroAgH/4h3/4h/+h4v+jw3yg36hKP2Ugfu0fd+v/UB8CeLKzGEmSlJsFQN7wbwEA//AP/wV+uN8t/X7/7InRPNgvq9YEXF+5r48ShP/FT7PZnHYWI0mScrEAgH/4h3/4h/+h4f+KRqOxtizHnfQOhn6//xn4twCQJEkWAPAP//AP//B/P/x3pA/5i2/Va8p27JmcnDw4fY4B/K/oGQA/5ixGkiSNfQEA//AP//AP/yt+r//d3W73jLIfg3q93jn9fv++PC0BioD/dNrt9n9zFiNJksa6AIB/+Id/+If/lU0g9D/m5+efWZXjULfb3dzr9W6FfwsASZJUoAUA/MM//MM//K/4tv/rm83mk6t2LEpvZ+/3+98e550ARcL/4BkApziLkSRJY1kAwD/8wz/8w/+Kr/x/s9FoPLGqx6MA7Y/2+/2b4H9xU6W7RCRJUo4WAPAP//AP/xYAK77yf2OSJFNVPyalt7X3+/3bR3knQBHxbwEgSZLGsgCAf/iHf/iH/xU/8O8OmHvQEqARML8X/vf7DIBTvVokSdLIFgDwD//wbwEA/yufKjztf6nF78lPw78FgCRJyskCAP7hH/7hH/6H8r7/NzoS7bl+v//2rN4KUHT8p9NqtWa8SiRJUuYLAPiHf/iHf/gfyvv+r4hvw2scifbcunXrHtbv9z8D/3v9FID1XiWSJCnTBQD8wz/8wz/8D+XK/83tdvs4R6F9V6/XTwrs3jmsOwHKgn8LAEmSlPkCAP7hH/7hH/6HtgB4sSPQ4grsvnoYC4Ay4T+dTqezwatDkiRlsgCAf/gvE/4tAOB/zPj/5/j2u8oRaNGt6ff7n4V/CwBJkjSCBQD8wz/8wz/8D+19/9tbrdbJjj5Lq9/vPzvQu3M5dwKUEf/p9Hq9jV4ZkiRpqAsA+Id/t/7DP/wP9er/2x15lleA9wNLXQCUFf+DZwA8y6tCkiQNbQEA//AP//AP/0O9+n/P3Nzc4xx5lleSJFOB+h3wbwEgSZKGvACAf/iHf/iH/+FOoO1PHXVWVr/f/yD8f/8ZAM/2ipAkSSteAMC/BQD8wz/8D/3q/44A24mOOiur2WyeAv/3T7vdfo5XhCRJWtECAP7hH/7hH/4zee//hxxxhlPg95/29iyAquDfAkCSJK14AQD/8A//8A//md3+33bEGU5JkpxlAfC873W73ZpXgyRJWtYCAP7hH/7hH/4zu/r/zfh2u8YRZzjNzc0d2u/3b6sy/gcPAXyuV4MkSbIAgH/4B3z4z9cC4E2ONsMtfaBilfFvASBJkkqzAAB8+Id/+C/TdLvdUxxthluv19taZfwPngGwyStBkiQtusnJyYMD3DvytAAAfPiHf/gv2Xv/b4pvt6sccYbb2rVrH97v9++u8gKg2+1u9kqQJEmLbmFh4ThX/uEf/uEf/jNdALzf0Sab+v3+P1oASJIkLbI4gXgG/MM//MM//Gc3gdRXONpktgB4bZUXAEmSzHoVSJKkRRcnTs+Cf/iHf/iH/+ym0+k81dEmm+L39tlVXgDEP/8WrwJJkrTo4mS8Af/wD//wD//ZzMLCwncnvP8/s2q12mH9fn+nBYAkSdIiCiBsg3/4h3/4twDIbAHwBUeabOv1ejdUdQHQarXmvAIkSdKiC0SdAf/wD//wD/+ZLQDe50iTbf1+/1ILAEmSpEUUUHg+/MM//MM//Gf2CQC/6UiTbfF7fGFVFwDNZrPuFSBJkhZd4G4B/uEf/i0A4D+zTwD4KUeabOv1eudV+BkAW70CJEnSogssdOAf/uEf/uE/mwmcnu5Ik/kC4BwLAEmSpMUtAGrwD//wD//wn9kdAE1HmmyL3+MfryL+45/7e+12u+EVIEmSlnLidDL8wz/8wz/8Z7YAeLYjTbYlSdKuIv7TabVa814BkiRp0S0sLEzCP/zDP/zDfzYTQDvZkSbbut1urYr4twCQJElLrlarHQb/8J9X/FsAwH/Rp9Pp/JgjTeYLgM1VxH868fryFhNJkrS0AqK3nnnmmfAP//AP//A//LcAPNdRJtsCxt0q4t8CQJIkLauA1heHvQAA/GLh363/8A//mS0AOo4y2ZYkyZlVXQC02+2WV4AkSVpSgb9Lh7kAAHz4h3/4N/fPwsLCjzvKZL4AeFkV8Z9O+gBErwBJkrSkAqV/NKwFAODDP/zDv3nQHQAvc5TJtvg9/sUq4t8CQJIkLatAxc8NYwEA+N73D//wbx509f9727Zte5OjTOYLgD+pIv7TaTab3mIiSZKWVpzIt1a6AIB7+Id/+DcPxn86gbiLHWWyrdfr/XMV8T94BkDiFSBJkpZUnGicsJIFANzDP/zDv9kd/+kE0r7iKJP5AuA/q4h/CwBJkrTcDgyk3g3/8A//8A//w8P/YAFw39TU1EEOM9k0MzNz5LZt2yqJ/3S6kVeBJElacgHDT1gAwD/8wz/8Dw//uyZJkvWOMtkUv7fzZVoALAX/g4cA9rwKJEnSkgus/j78wz/8wz/8Dxf/6XS73V9wlMmmXq/3hrIsAJaK/3Tin3/Bq0CSJC25AMcL4B/+4R/+4X+4+B88CPASR5lsCgRfXYYFwHLwP7gDwMdMSpKkpRcnEVPwD//wD//wP/wFQAD1u2vXrn24I81wq9Vqjwo87yj6AmC5+B88A+BnvRIkSdJyWh14vXV/nwYA+PAP//BvFo//BzwHoO4wM9wCv2dU9cr/A94C8BqvBEmStKwCsO/b1wIA8OEf/uHfLB3/g7cBvNtRZrgFgP+uyvgf3AHwWq8ESZK0rOKk/6f3tgAAfPiHf/g3y8P/YAFwR61WO8yRZjjNzc09Ov2IxSrj3wJAkiStqDgpOWFPCwDAh3/4h3+zfPzvml6v90JHmuEU8H1VUd/7Pyz8Dx4C+EqvBkmStOwCkF+Hf/iH/2ri3wIgO/wP7gL4R0eZoXRAr9f7lyIuAIaJ/3Q6nc5LvBwkSdJKFgBvh3/4h3/4N8PF/wMeBrjekWZlBXybVb/y/4A7AHpeEZIkadkFTJrwD//w79Z/M3z8p5M+uM6RZsULgKvg//5pt9unekVIkqRlNzk5eXCA8lZLAPiHf/g3w8V/Otu2bdvZ7Xaf7mizvDqdznOLdut/VvhPp1arrfOqkCRJKyoQ9y4LAPiHf/g3w8X/Ax4G+CFHmmWVvvf/8iItALKC/+DvfW/8nqzxspAkSSsqUNCyAIB/+Id/+F/IbAKyfUebpRW/Zy925f8HC4D4/fiCV4UkSVpx6dsAAnS3QD/8WwDAP/xnM4G4f6vVaoc54iyuRqNxVPye3Qj/P1gAJEnyAa8MSZI0lAJ07wB/+Id/+If/7Gbbtm2/4WizuAK8Fxbl1v+s8f+AOwAu8MqQJEnDOtl6JvzDP/zDP/xnugDY0W63Nzni7Pd41A307izCAmAU+H/AHQA+AlCSJA2vAOfVVX4WQN7w733/8A//5cH/A5YA36jVao9yxNlz6VPue73eTW79330B0Gg01nqFSJKkYS4Azq7qAgD+4R/+4X9UE5i7OL7lHuCos1sHBv6vdOv/7hO/L//u5SFJkoZao9E4IqB3mwUA/MM//MN/5kuAVzvqPLiA7gWu/O95ut3uX3mFSJKkoRf4fBv8wz/8wz/8Z/5WgJ0Buxc56nwf/z/ryv8+FwBeK5IkafgFIH40ELqzKm8FgH/4h3/4H+MS4J5WqzVX9eNOkiTbAtY7PPRv77Np06YnOEORJEmZFLB5XxUWAPAP//AP/2PE/39N4O72drt9alWPN91ud3Ov17vblf+9P/wvfo++5MxEkiRlVpx0nJzeBQD/8G/gH/6zw3866R/H99w7AsFbq3asiX/mhRT/rvzv9+P/fseZiSRJyrRAzgfgH/4N/MN/tguAXRPQ2x4YPqdCi+bzY3a68r//BUC9Xj/ZWYkkScq0OHE+Ff7h38A//GeP/113AgT2dvZ6vf85Ue6PCFwd/4xv8LT/RT/87yvOSCRJ0kgKEF5cpmcBwD/8w78FQB7x/9BFQAD5Y/V6/diyHVPm5uaOC9R+0tP+Fz/xWvhVZyOSJGkkBXrWl+VZAPAP//AP/3nH/0Pm+sDfTFmOJ0mSzMY/z7dd+V/a1Ov1k5yNSJKkkRU4fA/8wz/8wz/8jxT/u/66ewOBv71hw4bDi3oMmZmZOTL+Gf5XUT7mLy/4Hzz875+chUiSpJHWarUeG2i9o6hvBYB/+Id/+C8a/vfwbIAbu93uufEteXWBDh9r0l9zYPbmosA/T1f+BwuAbc5CJEnSyAsIva6ICwD4h3/4h/8i438PHxd4eaC6lvdjRsB1Pn6tVxcJ/nnC/+DhfzfEb+WBzkAkSdLIm5mZeXgA9jr4h3/4twCA/9Hjfw8PCfyXmIWJfH1awOqA/1mB188XDf55w386nU7nl5x9SJKksRUoOhP+4R/+4R/+x4f/PSwCrgwsvqxWqz1qXMeG9NMKut3uz6RLiSLCP2/4T3898Xt51/z8/DHOPCRJ0jg7IHD98by/FQD+4R/+4b/s+N/LwwI/HPPjo1gGpDgN9L8goPrR+Dm3FxX+ebzyP7j6/2anHJIkaewlSTIVqP0u/MO/BQD8w//48b+X2REw/3TMG+J7dn0YC4HNmzcfHeBvxbwp/r6fC6TuLCr484z/+L1NH/z33S1btjzGGYckScpFgZJXwz/8wz/8w38u8f/92YXc9McBy5tiPhHIfEd8/eWYVwfmzw5snpk+SyCd9P376Z+LH58XX38l/r9/FnNV/D1uKfIV/iLhP534vX+rMw1JkpSnVgUoPwb/8A//8A//+ca/KQ7+069JktyZ3m3hNEOSJOWqbrf7pIDlnfAP//AP//AP//C/8iv/gwXAbzvDkCRJuSyw+1L4zzf+LQDgH/7h3+T7gX+7FgCB/69NT08f4uxCkiTltfStAJfBP/zDP/zDP/zD//Lxn06z2TzdaYUkScp1nU7n6IDUN+Ef/uEf/uEf/uF/2bf+/60zCkmSVIji5Py5Ac7tVcW/9/3DP/zDP/xbACz3yn/6sX/1en3S2YQkSSpMgeAL4B/+4R/+4R/+4X/x+E+n0+m8zlmEJEkqWmsCV5e69R/+4R/+4R/+4X//+E//uNvtXh3HzwOdQkiSpMK1cePGRwZCvwz/8A//8A//8A//+77yH/i/rdlsHu/sQZIkFbY4UT4xMHoz/MM//MM//FsAwP+e8T+49f8cZw2SJKnwBUi7geQd8A//8A//8A//8N/b7db/wP9H43B5gDMGSZJUigJe/wP+4R/+4R/+4R/+d5tvNxqNtc4UJElSqQqg/ib8wz/8w38R8e99//CfxZX/brd7d7vdPtUZgiRJKmOrAmLvhX/4h3/Ah3/4r/qV/8Gt/y91aiBJksrc6gDrX8I//MO/ces//Ff4tv/06v9bnRJIkqTSNzU1dVBA+sPwD//wb+Af/qt45T9JkkvjcLjGGYEkSapEc3NzhwZgL4d/+Id/A//wX6Ur/4H/6zdv3ny0MwFJklSppqenDwnIXgL/8A//Bv7hvyJX/q+fnZ19vDMASZJUyWZmZh4eQPoo/MM//MM//MN/yd/z/635+fknOfJLkqRKN3g7wGXwD/9lw78FAPzDP/wPrvzf7uP+JEmSBqUPBgzAvQf+4R/+4R/+4b9k7/m/vdVqzTjSS5IkPbg1gaa3wz/8u/Uf/uEf8Mtw5T++3ttsNjsO75IkSXspMHce/MM//MM//JuCv+f/tna7vclRXZIkaT8FEl4WsLsP/uEe/uEf/k0B3/N/a6PReI6juSRJ0uKXABsCeP8B/wb+4R/+TYGu/H8j8D/lKC5JkrTE4iR9MqD3Jfg38A//8A//BXjP/5drtdo6R29JkqTlLwGOCfBdURX8WwDAP/zDv8kv/ve2AEiS5Itzc3OPc9SWJElaYenHBAaML4R/A//wD//wnyf8p3+u2+1e9qxnPesoR2tJkqQhFqA4IxB4J/zDP/zDP/zD/zjxP/jjHYH/8+PwtNoRWpIkKYPixPCZga+ved8//MM//MO/BcC4rvwnSXJnp9P5CUdlSZKkjNuwYcPhgbB3wT/8wz/8wz/8j/rKf+D/msD/iY7GkiRJIywwdlYA+g74h3/4h3/4h/9RXPnvdrt/nS6hHYElSZLGUJyQPS2g+Fn4h3/4h3/4h/8M8b8jSZJfm/B+f0mSpLG3JsB4Xsw98A//8A//ecO/BUBx8T94yv9Xms3mKQ61kiRJOSpJkqcE1j4D//AP//AP//A/jCv/gf93NRqNIxxhJUmSctj09PQhgbY3BbS3wz/8wz/8wz/8Lwf/SZLc2mq1XuyoKkmSVIDixPKpAbir8rQEAHz4h3/v+zf5xv/gKf8fnJ+fP8aRVJIkqUBNTU0dFCj45cDl3eNeBAA+/MM//Jv84n8A/zva7fYr4vBxgCOoJElSQYuTuqlA3cfgH/7h363/8A//e7ryH8eJD83Ozj7eEVOSJKkkBVzaAbyvwj/8wz/8wz/8D57w/9VWqzXvCClJklTCarXaYYGY3wrs3QP/8A//8A//lcX/vZ1O540bNmw43JFRkiSp5MWJ34mBvvdn9WwAwId/+Id/kz/8p7+WXq/30Waz+WRHQkmSpIoVJ4PrAzeXD3MRAPjwD//wb/KF/8Gv46uB/74jnyRJUsWLE8PZwPvVK10EAH6x8G8BAP/wX278p7+Gbrd7Q8zZ8a1+jaOdJEmSdrU6QHhWzFeWswgAfPiHf/g3+cD/AP53xo9/Y3p6+hEOb5IkSdpbBwY2XhRovW6xiwDAd+s//MO/GT/+B/C/u9frvW3Tpk2PdTiTJEnSopqamjoooPjSmH/b1yIA7uEf/uHfjBf/D4R/o9FY6wgmSZKkZTU5OXlwoOglAcd/fegiAO7hH/7h34wP/4On+t8F/pIkSRp2BwSQ2oHaj6eLALiHf/iHfzMe/A+u+H8j5tyA/xEOT5IkScpsERAnoM0A7mXuAoB/+Id/87xRX/G/LoX/3NzcoQ5HkiRJGlkBlcnA0wUBzJuhH/7hH/7hP5sJ9O8M9H84SZLZ+Na7ytFHkiRJY2vDhg2HB1zODmx+Af7hH/7hH/6HBv+7Av4XtVqtpznSSJIkKW+tCXT2Y/4uMLyjam8RgH/4h38LgGFMoP+GJEl+bW5u7nEOK5IkScp99Xr92EDWeTHXVmERAP/wD//wv8KH+t3X6/Xe6zZ/SZIkFbk1AZxeoPTimO3wD//wD//w/yD4p1f731Cv1ycdLiRJklSaNm7c+Mj0WQGBsCvgH/7hH/6riv9A/+2D9/ZvnHC1X5IkSWUvTn6nA2RvCQR9p6hvEYB/+Id/+F8i/K9MkuTlMzMzRzoKSJIkqYodGCfW7QDROwOxt8A//MO/BUBZ8J/+db1e7+qA/8/Pzc0d59u9JEmSNGhycvLgOGnuBNjeFXNrXu8MgH/4h3/438/H930q5jXNZvN439klSZKk/VSr1R4WMEnSOwNiboR/+C8D/t36X078B/Z3xFzR7XZ/1pV+SZIkaWWtiZPrTYNnBlwH//AP//A/TvwP/rd7A/yXxLw0/dhT36YlSZKkDIqT72cE8M4PUH06ILwT/g38w/8o8B/Y/0aSJH/Ybref12g0jvDdWJIkSRphAatjAnw/GfPu+PF/wL/xvn/4HyL+06v8l6Xv52+1Wk/zHVeSJEnKT6viZP2UAOBrA8r/N75uh3/4h3/4XwL8d8b3kP+XJMnvBvjnp6amDvNtVZIkSSpA6S26cULfDPT8duD5qqUuBOAf/uG//BPg/9cA/x/H1zM2b958tO+ckiRJUkkWAoGgVkDxjYGzT+5rIQD/8A//pbzCvz3m6sD+mwP92+bn54/xnVGSJEmqQBs2bDg8MDCbvmUgwHZxQPsm+Id/+C/P9Hq9m2I+EuA/v9VqzaX/zfvOJ0mSJCntgCRJpgJwLwo0/XF8vSYAvmPcSwHAh3/4XxT274v5VGD/9+O/47M6nc6J6X/Tvq1JkiRJWlSDtw3UAnavDmT87/h63SgXAoAP//C/51v5A/ufi/nTwP4rms3m+unp6UN8x5IkSZI01Obm5h6dPlwwAHp+zIdivgb/8A//mWH/rvTKPuxLkiRJyksHttvtkwJeC+liIL5+OFB4LfzDP/wv+mn834m5JKD/lvh6dnzdGD3StxZJkiRJhWh2dvbxAcStMa+KuSjwelnMt+Ef/quK/8D9bYH7q/r9/jvi62tiki1btpwQ/7ms9h1DkiRJUulKr2wGgE4N0P73mN8KSH4g8Pb5+HqXJQD8Fx3/gfq74+uXAvsXx4/fFl9/Jn0Kf7oQ81+/JEmSJA3atGnTYwNzzwpgviC+vj7m3fHjK+Prf8I//OcB//1+/774en18vSLmzwP4r0+S5IXtdvs5c3Nzj4uX8Sr/JUuSJEnSCko/lSB91kCv19sa8HpR+ryBgNgfBwD/Pv3Ywpjby3gHAfyPBv/p32uA+2/Ea+wT8eO/jq9vDuC/Kl53p6UP4EsXVBNu15ckSZKk8Tc9Pf2IdEmQJMlsAO7MANzPxdffDdz9Wcylg0XBTUVZFMD/yvE/+P+lT9P/esyn4/XwtzF/FD/+1Zhz4rXSDuRP1+v1YydcvZckSZKkcjU5OXlw+p7sgN8pgcP5gOBZ8fWVAcNfDzD+Yfz4/QHey+PHX4wffyd+vBP+84H++Hd1a8zX0o/Hi39fl8S/n7+MuTC9FT99v33MT3Q6na0p6tN/xz42T5IkSZK0lFalDy9sNpvHByyfHvh8TuCzM7jL4OUB01+MSR9oeFF8TUH6kfjx/4m5Ov4/n4s/d226SIivN1cN//HPvT1+D26K+XbMtTHXxJ+7KibF+/vjj/8s5qKYC2Jem95yH1/Pjq+nxddm/P7OBOhPbDQaR8W/hzVeipIkSZKkwpTegZAuFNKHxgVsn5herd416dsXdk3gd+EB85IUxukEnF8df3zeQyf+t9cNIL3Sef0D/p4/s+vnjV/TWbt+PSnOd/062+32qemvvdVqnZAuSWZmZo6s1Wo/5N+0JEmSJEmSJElD6v8DwqX3WCCB+F8AAAAASUVORK5CYIINCg==;" vertex="1" parent="1">
          <mxGeometry x="626.5" y="200" width="194" height="194" as="geometry" />
        </mxCell>
        <mxCell id="_VWbQ-hqAl-CbUJv-0zC-30" value="" style="endArrow=classic;startArrow=classic;html=1;rounded=0;fontSize=25;entryX=0.5;entryY=0;entryDx=0;entryDy=0;" edge="1" parent="1" source="_VWbQ-hqAl-CbUJv-0zC-28" target="_VWbQ-hqAl-CbUJv-0zC-6">
          <mxGeometry width="50" height="50" relative="1" as="geometry">
            <mxPoint x="715" y="444" as="sourcePoint" />
            <mxPoint x="715" y="464.71067811865476" as="targetPoint" />
          </mxGeometry>
        </mxCell>
        <mxCell id="_VWbQ-hqAl-CbUJv-0zC-31" value="" style="endArrow=classic;startArrow=classic;html=1;rounded=0;fontSize=25;entryX=0;entryY=0.5;entryDx=0;entryDy=0;exitX=1;exitY=0.5;exitDx=0;exitDy=0;" edge="1" parent="1" target="_VWbQ-hqAl-CbUJv-0zC-6">
          <mxGeometry width="50" height="50" relative="1" as="geometry">
            <mxPoint x="447.99999999999955" y="590" as="sourcePoint" />
            <mxPoint x="560" y="560" as="targetPoint" />
          </mxGeometry>
        </mxCell>
        <mxCell id="_VWbQ-hqAl-CbUJv-0zC-32" value="" style="endArrow=classic;startArrow=classic;html=1;rounded=0;fontSize=25;exitX=1.003;exitY=0.557;exitDx=0;exitDy=0;exitPerimeter=0;entryX=0;entryY=0.5;entryDx=0;entryDy=0;entryPerimeter=0;" edge="1" parent="1" source="_VWbQ-hqAl-CbUJv-0zC-6" target="_VWbQ-hqAl-CbUJv-0zC-23">
          <mxGeometry width="50" height="50" relative="1" as="geometry">
            <mxPoint x="860" y="620" as="sourcePoint" />
            <mxPoint x="910" y="570" as="targetPoint" />
          </mxGeometry>
        </mxCell>
        <mxCell id="_VWbQ-hqAl-CbUJv-0zC-33" value="Heroku" style="text;html=1;strokeColor=none;fillColor=none;align=center;verticalAlign=middle;whiteSpace=wrap;rounded=0;fontSize=25;" vertex="1" parent="1">
          <mxGeometry x="269.5" y="430" width="179" height="30" as="geometry" />
        </mxCell>
        <mxCell id="_VWbQ-hqAl-CbUJv-0zC-34" value="" style="shape=image;verticalLabelPosition=bottom;labelBackgroundColor=default;verticalAlign=top;aspect=fixed;imageAspect=0;image=data:image/jpeg,/9j/4AAQSkZJRgABAQAAAQABAAD/2wBDAAsJCQcJCQcJCQkJCwkJCQkJCQsJCwsMCwsLDA0QDBEODQ4MEhkSJRodJR0ZHxwpKRYlNzU2GioyPi0pMBk7IRP/2wBDAQcICAsJCxULCxUsHRkdLCwsLCwsLCwsLCwsLCwsLCwsLCwsLCwsLCwsLCwsLCwsLCwsLCwsLCwsLCwsLCwsLCz/wAARCAC0AKMDASIAAhEBAxEB/8QAGwABAAMBAQEBAAAAAAAAAAAAAAEFBwYEAwL/xABGEAABAwIBBggLBwIFBQAAAAAAAQIDBAURBhIhNXGRFTFBUnSys9ITFjNRVFVhdYGUtBQiMkJyhKEj0SRig5LworHB0+H/xAAaAQACAwEBAAAAAAAAAAAAAAAABAEDBgIF/8QAKREAAgECBQMEAgMAAAAAAAAAAAECAzEEETNRcRITFSFSobEFMkFhkf/aAAwDAQACEQMRAD8A1sAAAB+JZooI5Jpntjijar5HvVEa1qcqqpyVbltCx7mUFIsrUXBJqhyxtd7WxtTOw2qmwupUKlZ5QWZKi3Y7AHBeO909Do983eHjvdPQ6PfN3hnx9fb5O+3I70HBeO909Do983eI8d7p6HR75u8Hj6+3yHbkd8DgfHe6eh0e+bvE+O909Do983eDx9fb5DtyO9BwPjvdPQ6PfN3ifHe6eh0e+bvB4+vt8h25Heg4Hx3unodHvm7xPjvdPQ6PfN3g8fX2+Q7cjvQcF473T0Oj3zd4jx3unodHvm7wePr7fIduR3wOFiy3rUcnhqCnczlSKSRjvgrkcn8HUWu9W67RuWme5ssaIssEqI2VmPLgmhU9qKU1cLVorOa9DlxauWQAFjkAAAAAADhMs7jI+pitkblSKFjJ6hE/PK/S1HexqaU/V7Dki6yo17dNtN9PEUpq8JBQoxS2z/0aiskgSQSNHZAGc3nJvQjObzk3oAEgAAAAAAB/zjGc3zpvQAJIGc3zpvQAAPRSVdRQVMFZTuVJYHZyIirg9v5o3exyaF/+HwBDSksmQbHBNHUQwTxrjHPFHMz9L2o5D6FbYtS2T3fSdmhZGNnHpk1sKO4AByQAAAGYZUa9um2m+niKYucqNe3TbTfTxFMa7D6MOF9DcbIH7iRFmpkVMUdUU7VRU0KiyNRUU/B9IfL0nSabtWFzsSaxwVZvV1Bx+iwd0ngu0erqH5aHunr/ALgx3XLcUzMluzGMul2YxrWsZW1LWNaiI1rUeuCIiaMDwnvvGtrx0+q66ngNdS/SPA2rAA+kMM9TNBTU7c6eokbFE3kzncq+xNKr7EO20vVgdLkhaYqyWrrqqGOWngRaaBkrGvY+Z2DnvzXaPupgiaPzL5js+CrN6toPlYO6Tb6KC3UVLRQ6WQRo1XLxvev3nPX2uXFV2nrMriMRKrUck/QVlLN5lXWUmT9DS1NXNbqDwcEbpF/w0GLl4mtT7vGq4Im0y6SR0sksrka10j3yK1jUaxquVXYNamhETkOqywuyTzNtkDsYqd6SVSouh0+Ghmjm8vtX/Kckez+PpSjT653f0XU1ks2SCAekWmrWHUtk930nZoWRW2HUtk930nZoWRjqupLlibuAAVkAAABmGVGvbptpvp4imLnKjXt020308RTGuw+jDhfQ3GyB9IfL0nSabtWHzPpD5ek6TTdqwudiTZAP7gxYmZNedbXjp9T11PAe+862vHT6nrqeA2NL9I8DcbIHZZJ0dBSo651tTSsqJWrHSxSTRI6GFfxPciuxRzv4T9WCcaqonGqJt0H5z4efHvac16Tqw6E8swks1kbDwha/TqP5iLvFVfMoKSgo3LSTwzVc2McCRPZIka4aZX5qqmCcnnXD4ZomaqYpmrsRCf8AnEefD8ZCMk5SzK1SRKq5yuc5Vc5yq5znLiqqulVVV5SAD1S0kEAkk1aw6lsnu+k7NCyK2w6lsnu+l7NCyMdV1JcsTdwACsgAAAMwyo19dNtN9PEUxc5Ua+um2m+niKY12H0YcL6G42QPpD5ek6TTdqw+Z+4fL0nSabtWFzsSbKB/cGLEzhp8k7pXXK5VEk1PTU01ZPJGq4zTOY56qjkY3BqfF3wLOmyMskWatQ+qqnJx+ElWJi7GQZv/AHU6YDcsbWa6erJf0d9bK6Gx2CnTCK20Se10LHu/3PRV/k9X2Kgww+y02Hm8DHh1T6vkijTGR7GJ53ua1P5U/LJ6eVVSKaJ6ppVI3tcv/Sou5zfq2znNngqbBYKpFSW30yKv54WJDImx8WCnHXvJea3MfV0b3z0bNMrX4eGgbzlVuhW+dcMU9vGmiEOa1yOa5Ec1yK1yORFRUVMFRUUvo4upReaea2JjNoxgHvu9ElvuVfSN8nFLjFy/0nokjEx9iLh8DwGpjJTipL+RpeoAB0SatYdS2T3fSdmhZFbYdS2T3fSdmhZGOq6kuWJu4ABWQAAAGYZUa+um2m+niKYucqNfXTbTfTxFMa7D6MOF9DcbIH7h8tS9Jpu1afg/TXK10b0wxY9j0x0pi1UcmJcyTZsUTFV4kxxXkQp6zKSw0Wc11Uk0iccdInhXbFci5ifFxntbdrtcVX7XVSPYq4+CauZCn+mzBu/E8J41L8Wr1Jf4UqnuddV5bVb8W0VHFEmlEfUuWV+3MZg1N6lHU32/VWPha+oRq6FbC7wLcPNhFmlaD0aeFo0/1iWKKRLlVyqrlVyrxq77yr8VDVVjkcxVa5FxRzFVrkVOVFbpIAydGq2GoqKqz2uoqHq+aSnTPevG5WuVuK+3RpLMp8mdQ2fo69dxcGPrJKpJLdikrszjLBES8uVPzUlM5dv32/8Ag546PLHXH7On60hzhp8Lox4GY2QAAydmrWHUtk930nZoWRW2HUtk930nZoWRjqupLlibuAAVkAAABmGVGvbptpvp4imLnKjXt020308RTGuw+jDhfQ3GyBJBJedEAACAAAJBJBIEGn5M6hs/R167i4KfJnUNn6OvXcXBkK+rLlisrszrLHXH7On60hzh0eWOuP2dP1pDnDTYXRjwMQsgABk7NWsOpbJ7vpOzQsitsOpbJ7vpOzQsjHVdSXLE3cAArIAAADMMqNe3TbTfTxFMXOVGvbptpvp4imNdh9GHC+huNkCeVn62dZCCeVv62dZC46O3ykyb8Kstxt0f9bFX1VOxPK8qyRIn5vOnLx8f4uHNoOPykyb8L4W426P+tpfVU7E8ryrJEifm86cvHx/i8PBY3LKnUfDKIT/hnDgA90vBJBIEGn5M6hs/R167i4KfJnUNn6OvXcXBkK+rLlisrszrLHXH7On60hzh0eWOuP2dP1pDnDTYXRjwMQsgABk7NWsOpbJ7vpOzQsitsOpbJ7vpOzQsjHVdSXLE3cAArIAAADMMqNe3TbTfTxFMXOVGvbptpvp4imNdh9GHC+huNkCeVv62dZCByt/WzrIXnRtBU3q9U1ogxXNkqpUX7NBjx8me/DSjU/ni2L3eqa0QYrhJVSov2eDHj5M9+HE1P54tmZ1VVU1k8tTUyLJNKuLnL/CNTkRORDN4PBus+uf6/YtCGfqz8zTS1E008qoss0jpZFa1GornLiuCN0HzANGlkskMAkgkkDT8mdQ2fo69dxcFPkzqGz9HXruLgyFfVlyxWV2Z1ljrj9nT9aQ5w6PLHXH7On60hzhpsLox4GIWQAAydmrWHUtk930nZoWRW2HUtk930nZoWRjqupLlibuAAVkAAABmGVGvbptpvp4imL3KuJ8d7rHuRUbPHTTMVeVvgmxrh8WqURrcM86MOF9DcbIEpoVq6NCtdp4tCoukgkvJPrVVVTWTy1NTIsk0rsXOXk8zWpyInIh8QASSWSAAAkkAACC/oMqrnb6SmooaejdFTszGOkbMr1TFV05r0Tl8x6fHa8+jUH+2f/2HLgVeEoyebic9C2Pdc7lUXWp+1TsiZJ4JkWbCjkbmsVVT8SqvL5zwkkDEYqKUY2OksgAQ5Ua1zl4moqr8NJ0SavYdS2T3fSdmhZHitML6e12mCRMHxUVMx6Lxo5I0xQ9pjajzm3/Ym7gAHBAAAAUeUVk4Xp2OhVra2mzlgV2hsjXccT18y8aLyLtM3qIKikldBVRSQSt42TJmrtaq6FT2oqmyHzlgp525k0UUrObKxr27nIqHoYbHSoLpazRZGfT6GNZzecm9BnN5yb0Ne4Ls/q6h+Wh7o4Ls/q6h+Wh7o75SPtZ33VsZDnN5yb0Gc3nJvQ17guz+rqH5aHujgyz+rqH5aHuh5SPtYd1bGQ5zecm9BnN5yb0Ne4Ms/q6h+Wh7o4Ls/q6h+Wh7oeUj7WHdWxkOc3nJvQZzecm9DXuC7P6uofloe6ODLP6uofloe6HlI+1h3VsZDnN5yb0Gc3nJvQ17gyz+rqH5aHujguz+rqH5aHuh5SPtYd1bGQ5zecm9BnN5yb0Ne4Ms/q6h+Wh7o4Ms/q6h+Wh7oeUj7WHdWxkKvYmGLm6eJMUxXYh0+T2TdVVzwVtfC+GihcyWOKZubJUvauc3Fi6UYmhVxTTs0r3UdDboXI+GjpY3pxOigiY5Pi1MT0FFf8lKcemCyOXUzsAAeSVAAAAAAAAAAAAAAAAAAAAAAAAAAAAAAAAAAAAAAAAH/9k=;" vertex="1" parent="1">
          <mxGeometry x="277.5" y="490" width="163" height="180" as="geometry" />
        </mxCell>
      </root>
    </mxGraphModel>
  </diagram>
</mxfile>
